<?xml version="1.0" encoding="UTF-8"?><svg id="_Layer_" xmlns="http://www.w3.org/2000/svg" viewBox="0 0 2745 1830"><defs><style>.cls-1{fill:#f4bb60;}.cls-2{fill:#f79d5f;}.cls-3{fill:#f7c18b;}.cls-4{fill:#ffddc0;}.cls-5,.cls-6{fill:#fff;}.cls-7{fill:#e76452;}.cls-8{fill:#fcdcb6;}.cls-9{fill:#999492;}.cls-10{fill:#a1ad57;}.cls-11{fill:#944b00;}.cls-12{fill:#bad8cd;}.cls-13{fill:#ba7d6b;}.cls-14{fill:#b9d6ed;}.cls-15{fill:#bbadd9;}.cls-16{fill:#bbc785;}.cls-17{fill:#6da290;}.cls-18{fill:#a1cebe;}.cls-19{fill:#89b2dd;}.cls-20{fill:#5881a5;}.cls-6,.cls-21{fill-rule:evenodd;}</style></defs><rect class="cls-15" width="2745" height="1830"/><g><g><g><g><path class="cls-5" d="M2179.3,1332.01l-224.49-86.25c-1.69-.65-3.55-.74-5.3-.26l-25.45,7.08c-1.86,.52-2.99,1.98-3.31,3.59l1.7,4.52c.07,.06,.12,.13,.2,.19,33.19,23.04,152.32,109.75,152.32,109.75-13.77,44.62-27.54,89.23-41.31,133.85-17.96,58.19-35.92,116.38-53.88,174.58-1.01,3.27-2.19,6.65-2.77,9.92,5.39,2.6,9.98,7.12,14.67,10.88,2.95,2.36,7.49,4.67,10.06,1.9,1.21-1.3,1.35-3.25,1.42-5.03,.1-2.32,.19-4.65,.29-6.97,.06-1.51,.42-3.4,1.89-3.74,.83-.19,1.67,.24,2.42,.65,9.94,5.52,23.31,18.59,23.31,.16,.11-1.02,.38-2.25,1.36-2.57,.73-.23,1.49,.18,2.14,.58,3.9,2.38,7.8,4.76,11.7,7.14,.72,.44,1.49,.89,2.33,.87,2.2-.06,2.93-2.98,2.8-5.18-.13-2.2-.16-4.99,1.85-5.89,1.21-.54,2.61-.07,3.84,.41,3.78,1.45,7.55,2.9,11.33,4.35-6.84-2.62,9.7-9.52,8.84-8.81,3.25-2.66,3.83-4.34,5.47-8.24,1.67-3.99,2.47-8.63,3.66-12.79,3.6-12.6,7.21-25.19,10.81-37.79,10.04-35.08,20.08-70.16,30.11-105.25,16.77-58.59,33.53-117.18,50.29-175.78,.56-1.96,1.12-3.92,1.68-5.87Z"/><path class="cls-3" d="M1922.46,1260.69c-1.48-1.16-2.01-2.91-1.7-4.52-2.98,9.57-90.1,256.75-112.78,326.29-3.38,10.37,.09,21.72,8.68,28.44l147.51,115.43,60.41-193.94,50.39-161.77-152.51-109.94Z"/></g><path d="M1964.17,1729.38c-.67,0-1.34-.22-1.88-.65l-147.51-115.43c-9.57-7.48-13.47-20.26-9.7-31.79,15.33-46.99,59.28-172.83,88.37-256.11,13.38-38.29,23.1-66.13,24.33-69.98,.61-2.81,2.67-5.01,5.47-5.79l25.45-7.08c2.39-.66,4.89-.55,7.22,.35l224.48,86.25c1.48,.57,2.27,2.17,1.84,3.69l-99.43,347.48c-.46,1.62-2.15,2.55-3.77,2.09-1.62-.46-2.56-2.15-2.09-3.77l98.66-344.8-221.88-85.25c-1.09-.42-2.26-.48-3.39-.16l-25.45,7.08c-.77,.21-1.03,.79-1.12,1.13-.01,.07-.02,.13-.04,.2-.04,.33-.04,1.03,.67,1.53,32.84,22.8,151.18,108.92,152.37,109.79,1.05,.77,1.5,2.13,1.12,3.38l-110.8,355.71c-.3,.96-1.05,1.7-2,2-.3,.09-.6,.14-.91,.14Zm-42.77-465.66c-3.8,11.02-11.92,34.28-22.2,63.69-29.08,83.25-73.02,209.06-88.33,255.99-2.97,9.1,.11,19.19,7.66,25.09l144.04,112.71,108.84-349.4c-14.87-10.81-118.81-86.39-150-108.08Z"/><path d="M2050.38,1692.34c-.29,0-.58-.04-.87-.13-1.61-.48-2.53-2.18-2.05-3.8l101.64-339.73-202.79-90.59c-1.54-.69-2.23-2.49-1.54-4.03,.69-1.53,2.48-2.23,4.03-1.54l205.23,91.68c1.4,.63,2.12,2.19,1.68,3.66l-102.4,342.3c-.4,1.32-1.61,2.18-2.92,2.18Z"/><path d="M2029.72,1700.99c-.47,0-.94-.11-1.37-.33l-15.85-7.99c-1.5-.76-2.11-2.59-1.35-4.1,.76-1.5,2.59-2.12,4.1-1.35l12.58,6.35,96.39-326.88-186-107.89c-1.46-.85-1.95-2.71-1.11-4.17,.85-1.46,2.71-1.96,4.17-1.11l188.08,109.1c1.22,.71,1.79,2.15,1.39,3.5l-98.11,332.68c-.26,.87-.88,1.58-1.71,1.94-.39,.17-.8,.25-1.21,.25Z"/><path d="M2000.81,1704.72c-.48,0-.95-.11-1.39-.33l-24.19-12.38c-1.5-.77-2.09-2.61-1.33-4.1,.77-1.5,2.61-2.09,4.1-1.33l20.97,10.73,100.64-321.63-168.73-114.32c-1.4-.94-1.76-2.84-.82-4.24,.95-1.4,2.84-1.76,4.24-.82l170.61,115.59c1.12,.76,1.6,2.15,1.2,3.44l-102.4,327.25c-.27,.86-.9,1.55-1.73,1.9-.38,.16-.78,.24-1.18,.24Z"/><path d="M2068.65,1685.8c-.28,0-.56-.04-.84-.12-1.62-.46-2.56-2.15-2.1-3.77l96.9-340.13-212.59-87.06c-1.56-.64-2.31-2.42-1.67-3.98,.64-1.56,2.43-2.3,3.98-1.67l215.11,88.1c1.44,.59,2.2,2.17,1.78,3.66l-97.65,342.76c-.38,1.34-1.61,2.21-2.93,2.21Z"/><path d="M1932.61,1261.88c-1.24,0-2.4-.76-2.86-1.98-.59-1.58,.21-3.34,1.79-3.92l18.57-6.93c1.58-.59,3.34,.21,3.92,1.79,.59,1.58-.21,3.34-1.79,3.92l-18.57,6.93c-.35,.13-.71,.19-1.07,.19Z"/></g><polygon class="cls-2" points="1864.18 1492.61 1914.48 1342.23 2030.91 1429.25 1979.03 1579.97 1864.18 1492.61"/></g><g><g><path class="cls-18" d="M2224.81,723.05l-77.12,173.79s-.23-.11-.58-.28c.88,5.78-.07,10.79-6.05,14.5-75.01-18.5-128.51,4.4-215.76,5.96-12.33,.22-60.35,6.24-68.13,16.26-3.93-7.16-16.87-20.44-25.84-20.02-5.1,.24-18.93,16.14-22.43,13.09-50.45-44.01-117.06-71.89-183.61-83.04l-13.07,2.62-4.59,7.27,203.73,79.63,46,2.9,294.94-20.28,90.66-195.04-18.15,2.64Z"/><path class="cls-5" d="M1831.33,913.25c8.97-.42,21.91,12.86,25.84,20.02,7.77-10.02,55.8-16.04,68.13-16.26,87.25-1.56,140.75-24.45,215.76-5.96,5.98-3.71,6.94-8.71,6.05-14.5,.35,.16,.58,.28,.58,.28l77.12-173.79,6.7-15.1c-68.82-22.24-216.67-26.85-262.73,29.23-35.18-64.42-192.45-96.51-213.79-91.11l-138.16,163.5-7.76,2.2c5.19-.45,7.07-2.41,12.96-1.39-7.92,8.75-13.31,19.57-19.24,29.76,7.48,.83,15,1.93,22.51,3.19,66.55,11.15,133.16,39.03,183.61,83.04,3.5,3.05,17.33-12.86,22.43-13.09Z"/></g><path d="M1857.36,938.79c-.06,0-.13,0-.19,0l-46-2.9c-.32-.02-.63-.09-.92-.2l-203.73-79.63c-.85-.33-1.5-1.02-1.79-1.89-.28-.86-.17-1.81,.32-2.58l4.59-7.27c.9-1.42,2.79-1.85,4.21-.95,1.42,.9,1.85,2.78,.95,4.21l-2.62,4.15,199.84,78.11,45.32,2.86,292.95-20.14,87.52-188.29-12.57,1.83c-1.68,.22-3.21-.91-3.46-2.58-.24-1.67,.91-3.22,2.58-3.46l18.15-2.64c1.11-.15,2.22,.3,2.88,1.2,.67,.9,.79,2.09,.32,3.11l-90.66,195.04c-.47,1.01-1.45,1.68-2.56,1.76l-294.94,20.28c-.07,0-.14,0-.21,0Z"/><path d="M1853.16,926.95c-1.31,0-2.52-.85-2.92-2.17-.49-1.61,.42-3.32,2.03-3.8,.78-.24,3.41-1.73,6.19-3.32,12.36-7.04,41.31-23.52,82.3-31.59,74.53-14.67,167.87,8.36,182.23,12.11l6.35-7.36c1.1-1.28,3.03-1.42,4.3-.32,1.28,1.1,1.42,3.03,.32,4.3l-7.6,8.81c-.77,.9-2,1.26-3.13,.95-1.01-.28-102.18-28.07-181.29-12.51-40.02,7.88-68.36,24.01-80.46,30.9-4.17,2.37-6.07,3.44-7.44,3.85-.29,.09-.59,.13-.88,.13Z"/><path d="M1835,918.51c-1.05,0-2.07-.54-2.64-1.52-.22-.38-22.63-38.6-47.03-56.03-57.68-41.2-167.9-47.89-169-47.95-1.16-.07-2.17-.78-2.63-1.84-.46-1.06-.27-2.29,.47-3.17l138.5-163.89c.58-.69,1.43-1.08,2.33-1.08s86.03,.52,162.58,45.08c42.25,24.6,53.49,46.81,53.94,47.74,.5,1.02,.39,2.24-.29,3.15l-131.18,177.92c-.8,1.08-2.17,1.49-3.39,1.09-.04,.03-.09,.06-.13,.08-.48,.28-1.01,.41-1.53,.41Zm-212.3-111.16c24.27,1.97,114.27,11.58,166.17,48.65,22.29,15.93,42.18,47.09,47.44,55.72l128.83-174.73c-3.31-5.34-16.45-23.71-50.63-43.61-69.76-40.61-146.86-43.96-158.12-44.23l-133.69,158.2Z"/><path d="M1822.25,922.21c-1.2,0-2.34-.71-2.82-1.89-.22-.53-22.42-53.16-79.26-68.38-58.08-15.56-131.94-19.21-132.68-19.24-1.13-.05-2.14-.73-2.62-1.76-.48-1.03-.35-2.23,.34-3.14l12.82-16.86c1.02-1.34,2.93-1.6,4.27-.58,1.34,1.02,1.6,2.93,.58,4.27l-9.36,12.3c18.64,1.2,78.99,5.92,128.22,19.11,59.84,16.03,82.4,69.69,83.33,71.97,.64,1.56-.11,3.34-1.67,3.97-.38,.16-.77,.23-1.16,.23Z"/><path d="M1811.57,926.95c-1.01,0-2-.5-2.58-1.42-.25-.39-25.25-39.44-65.94-54.7-41.5-15.56-128.98-34.76-129.86-34.95-1.64-.36-2.69-1.99-2.33-3.63,.36-1.64,1.97-2.69,3.63-2.33,.88,.19,88.79,19.48,130.7,35.2,42.66,16,67.9,55.49,68.96,57.16,.9,1.43,.47,3.31-.95,4.21-.51,.32-1.07,.47-1.62,.47Z"/><path d="M1856.64,934.07c-1.19,0-2.32-.7-2.81-1.86-.66-1.55,.06-3.34,1.61-4,.53-.23,54.01-22.79,103.39-30.15,49.46-7.36,153.66,8.39,158.07,9.06,1.66,.25,2.81,1.81,2.55,3.47-.25,1.67-1.78,2.81-3.48,2.56-1.07-.16-107.69-16.3-156.24-9.06-48.6,7.24-101.38,29.5-101.91,29.72-.39,.17-.79,.24-1.19,.24Z"/><path d="M1857.97,934.53c-2.63-5.08-5.33-10.22-9.23-14.41-3.9-4.19-9.22-7.38-14.93-7.49-7.69-.15-30.84,11.59-22.45,20.21,7.96,8.18,36.29,1.02,46.61,1.69Z"/><path d="M1858.97,933c-1.41,0-2.67-.98-2.98-2.41-.35-1.65,.69-3.27,2.34-3.62,85.1-18.31,196.17-25.75,282.96-18.95,1.68,.13,2.93,1.6,2.8,3.28-.13,1.68-1.61,2.92-3.28,2.8-86.25-6.75-196.63,.64-281.21,18.83-.21,.05-.43,.07-.64,.07Z"/><path class="cls-9" d="M1942.94,746.82c-.82,0-1.63-.32-2.23-.97-.22-.23-22.45-23.69-69.59-48.42-46.98-24.65-110.98-23.39-111.63-23.39-1.72,0-3.08-1.32-3.12-2.97-.04-1.68,1.29-3.08,2.98-3.12,2.68-.07,66.2-1.31,114.61,24.08,48.16,25.26,70.3,48.68,71.22,49.66,1.15,1.23,1.08,3.16-.15,4.31-.59,.55-1.34,.82-2.08,.82Z"/><path class="cls-9" d="M1925.52,766.58c-.82,0-1.63-.32-2.23-.97-.22-.23-22.45-23.69-69.59-48.43-46.97-24.64-110.98-23.41-111.63-23.38-1.72,0-3.08-1.32-3.12-2.97-.04-1.68,1.29-3.08,2.98-3.12,2.68-.07,66.21-1.31,114.61,24.08,48.16,25.27,70.29,48.68,71.22,49.67,1.15,1.23,1.08,3.16-.15,4.31-.59,.55-1.33,.82-2.08,.82Z"/><path class="cls-9" d="M1910.24,788.7c-.82,0-1.63-.32-2.23-.97-.22-.23-22.45-23.69-69.59-48.42-46.97-24.64-110.98-23.4-111.63-23.38-1.72,0-3.08-1.32-3.12-2.97-.04-1.68,1.29-3.08,2.98-3.12,2.68-.07,66.22-1.31,114.61,24.08,48.16,25.26,70.3,48.68,71.22,49.66,1.15,1.23,1.08,3.16-.15,4.31-.59,.55-1.33,.82-2.08,.82Z"/><path class="cls-9" d="M1896.23,808c-.82,0-1.63-.32-2.23-.97-.22-.23-22.45-23.69-69.59-48.42-46.98-24.65-110.98-23.39-111.63-23.39-1.72,0-3.08-1.32-3.12-2.97-.04-1.68,1.29-3.08,2.98-3.12,2.66-.08,66.21-1.31,114.61,24.08,48.16,25.26,70.3,48.68,71.22,49.67,1.15,1.23,1.08,3.16-.15,4.31-.59,.55-1.33,.82-2.08,.82Z"/><path class="cls-9" d="M1879.38,826.29c-.82,0-1.63-.32-2.23-.97-.22-.23-22.45-23.69-69.6-48.43-46.97-24.64-110.98-23.41-111.63-23.38-1.72,0-3.08-1.32-3.12-2.97-.04-1.68,1.29-3.08,2.98-3.12,2.68-.06,66.21-1.31,114.61,24.08,48.16,25.27,70.3,48.68,71.22,49.67,1.15,1.23,1.08,3.16-.15,4.31-.59,.55-1.33,.82-2.08,.82Z"/><path class="cls-9" d="M1863.93,844.4c-.82,0-1.63-.32-2.23-.97-.22-.23-22.45-23.7-69.59-48.43-46.97-24.64-110.98-23.4-111.63-23.38-1.8,.11-3.08-1.29-3.12-2.97-.04-1.68,1.29-3.08,2.98-3.12,2.68-.07,66.21-1.31,114.61,24.08,48.16,25.26,70.29,48.68,71.22,49.67,1.15,1.23,1.08,3.16-.15,4.31-.59,.55-1.33,.82-2.08,.82Z"/><path class="cls-9" d="M1848.38,872.11c-.86,0-1.72-.37-2.33-1.08-.21-.24-21.25-24.77-67.12-51.79-45.7-26.92-109.7-28.84-110.34-28.85-1.68-.04-3.01-1.44-2.97-3.12,.04-1.68,1.43-3.11,3.12-2.97,2.68,.07,66.2,1.95,113.29,29.69,46.86,27.61,67.81,52.08,68.68,53.11,1.09,1.29,.93,3.21-.36,4.3-.57,.48-1.27,.72-1.97,.72Z"/><path class="cls-9" d="M1998.86,736.66c-1.2,0-2.33-.71-2.82-1.88-.64-1.56,.1-3.34,1.65-3.98,77.46-32.1,145.74-21.08,189.39-6.18,1.59,.54,2.45,2.28,1.9,3.87-.54,1.59-2.28,2.44-3.87,1.9-42.64-14.56-109.37-25.32-185.08,6.05-.38,.16-.78,.23-1.17,.23Z"/><path class="cls-9" d="M1977.28,762.65c-1.13,0-2.22-.63-2.75-1.72-.73-1.52-.09-3.34,1.42-4.07,79.22-38.22,160.61-21.38,202.08-7.95,1.6,.52,2.48,2.24,1.96,3.84-.51,1.6-2.23,2.48-3.84,1.96-40.6-13.15-120.24-29.65-197.55,7.64-.43,.21-.88,.3-1.32,.3Z"/><path class="cls-9" d="M1957.97,785.46c-1.1,0-2.17-.6-2.71-1.65-.77-1.5-.18-3.34,1.31-4.11,7.17-3.7,65.76-19.15,108.98-19.22,14.65-.04,59.56-.08,100.64,13.62,1.6,.53,2.46,2.26,1.93,3.86-.53,1.6-2.26,2.46-3.86,1.93-40.14-13.39-84.2-13.32-98.7-13.31-42.15,.06-100.04,15.36-106.19,18.54-.45,.23-.92,.34-1.39,.34Z"/><path class="cls-9" d="M1933.45,815.84c-1.2,0-2.34-.71-2.82-1.88-.64-1.56,.1-3.34,1.65-3.98,.48-.2,48.07-19.64,105.52-21.07,68.32-1.69,110.14,10.23,116.82,13.27,1.53,.7,2.21,2.51,1.51,4.04-.7,1.53-2.5,2.21-4.04,1.51-5.33-2.43-46.57-14.38-114.14-12.72-56.27,1.4-102.88,20.41-103.34,20.61-.38,.16-.77,.23-1.16,.23Z"/><path class="cls-9" d="M1910.25,844.77c-1.18,0-2.3-.69-2.8-1.83-.67-1.54,.04-3.34,1.58-4.01,2.29-1,56.88-24.42,107.53-23.53h.34c53.87,.96,80.9,1.44,119.25,14.62,1.59,.55,2.44,2.28,1.89,3.88-.55,1.59-2.28,2.44-3.88,1.89-37.44-12.87-64.15-13.34-117.38-14.29h-.34c-.9-.02-1.79-.03-2.69-.03-48.65,0-101.76,22.82-102.31,23.05-.4,.17-.81,.25-1.21,.25Z"/><path class="cls-9" d="M1880.61,880.95c-1.04,0-2.05-.53-2.62-1.49-.86-1.45-.39-3.32,1.06-4.18,36.07-21.49,78.87-34.02,123.78-36.25,41.7-2.06,84.65,4.5,127.67,19.5,1.59,.56,2.43,2.29,1.88,3.88-.55,1.59-2.31,2.43-3.88,1.88-42.28-14.74-84.47-21.19-125.36-19.17-43.92,2.17-85.75,14.41-120.96,35.39-.49,.29-1.03,.43-1.56,.43Z"/><path d="M1857.36,937.38c-1.46,0-2.75-1.05-3-2.54-.11-.64-2.96-15.79-19.46-16.35-.2,0-.4,0-.59,0-12.48,0-19.99,13.34-20.06,13.48-.49,.88-1.38,1.47-2.38,1.56-1,.09-1.99-.31-2.64-1.08-.31-.37-31.38-36.89-94.25-59.51-65.63-23.61-111.93-26.83-112.39-26.86-1.1-.07-2.08-.74-2.56-1.74-.47-1-.37-2.18,.28-3.08l9.44-13.15c.98-1.37,2.88-1.68,4.26-.7,1.37,.98,1.68,2.89,.7,4.26l-6.34,8.84c14.17,1.57,55.13,7.42,108.69,26.69,54.63,19.65,85.26,48.88,94.15,58.32,3.73-5.01,11.97-13.51,23.9-13.13,17.25,.58,24.07,14.27,25.27,21.42,.28,1.66-.84,3.23-2.5,3.51-.17,.03-.34,.04-.51,.04Z"/><path d="M1846.17,920.07c-1,0-1.97-.49-2.56-1.39-.92-1.41-.51-3.3,.9-4.22l1.94-1.28c61.5-40.76,109.61-51.61,139.13-53.53,72.42-4.71,145.4,26.24,160.59,33.12l81.06-182.66c-14.77-3.31-72.01-15.56-114-16.28-82.12-1.42-134.49,34.78-141.97,45.14-.99,1.36-2.89,1.67-4.26,.69-1.37-.99-1.67-2.89-.69-4.26,10.53-14.59,67.78-48.98,147.03-47.67,49,.84,118.19,17.1,118.88,17.26,.88,.21,1.63,.8,2.03,1.61,.41,.81,.43,1.76,.06,2.59l-83.82,188.88c-.34,.76-.96,1.34-1.74,1.63-.78,.28-1.64,.24-2.38-.12-.8-.39-81.06-38.99-160.39-33.84-28.78,1.87-75.77,12.5-136.16,52.52l-1.98,1.31c-.51,.33-1.09,.49-1.66,.49Z"/></g><g><g><path class="cls-17" d="M516.94,1205.34l273.13,65.77,113.19,374.87-257.22-80.06c-12.25-2.44-23.6-9.31-27.84-22.53l-114.87-353.58c2.4,6.57,7.56,12.41,13.61,15.53Z"/><path class="cls-5" d="M903.05,1644.92l-113.16-376.63-267.23-60.85c-1.96-.37-3.87-1.14-5.72-2.1l-13.55-15.45c-.55-1.55-1-3.11-1.21-4.69-1.29-10.03,11.81-14.98,21.49-12.8l279.98,63.08,113.47,384.97c-8.58,10.99-14.09,24.45-14.09,24.45Z"/></g><polygon class="cls-12" points="579.6 1281.31 613.17 1379.41 767.99 1414.3 735.74 1316.49 579.6 1281.31 579.6 1281.31"/><path d="M903.38,1649.06c-.25,0-.5-.03-.75-.09-.08-.02-.16-.04-.24-.06-.08-.03-.17-.05-.25-.09l-256.86-79.93c-15.25-3.08-25.9-11.8-29.99-24.56l-113.15-348.29c-.97-1.89-1.61-3.85-1.84-5.82-.68-6.13,1.06-11.17,5.03-14.73,6.8-6.1,18.26-6.24,26.72-4.33l272.29,61.35c1.08,.24,1.94,1.05,2.25,2.11l113.47,384.97c.33,1.11,0,2.3-.84,3.09-5.26,4.91-9.14,11.15-11.2,18.05l-1.59,5.31c-.01,.79-.33,1.56-.9,2.13-.58,.57-1.35,.88-2.15,.88Zm-391.46-442.69l109.19,336.09c4.59,14.31,17.97,18.97,25.54,20.48,.1,.02,.21,.05,.31,.08l251.86,78.38-111.32-370.53-265.5-60.45c-3.56-.68-7.01-2.11-10.07-4.05Zm-4.16-12.81c2.59,4.74,8.42,9.55,15.48,10.89l267.34,60.87c1.07,.24,1.93,1.04,2.24,2.09l110.58,368.05c2.31-5.93,5.82-11.35,10.3-15.89l-112.44-381.49-270.54-60.96c-8.76-1.98-17.13-.83-21.3,2.92-2.42,2.17-3.45,5.25-3.08,9.14l1.42,4.38Z"/><path d="M790.07,1274.16c-.74,0-1.47-.26-2.06-.8-7.51-6.88-8.66-17.69-5.43-24.18,3.31-6.65,10.04-9.7,15.45-12.15,1.54-.7,3.34-.02,4.04,1.52,.7,1.53,.02,3.34-1.52,4.04-4.76,2.16-10.16,4.61-12.51,9.31-2.18,4.38-1.06,12.25,4.09,16.96,1.24,1.14,1.33,3.07,.19,4.31-.6,.66-1.43,.99-2.25,.99Z"/><path d="M775.48,1445.56c-.22,0-.45-.02-.67-.07l-153.55-34.6c-1.64-.37-2.68-2-2.31-3.65,.37-1.64,2.02-2.67,3.65-2.31l153.55,34.6c1.64,.37,2.68,2,2.31,3.65-.32,1.42-1.58,2.38-2.97,2.38Z"/><path d="M785.67,1474.54c-.22,0-.45-.02-.67-.07l-153.55-34.6c-1.64-.37-2.68-2-2.31-3.65,.37-1.64,2.01-2.67,3.65-2.31l153.55,34.6c1.64,.37,2.68,2,2.31,3.65-.32,1.42-1.58,2.38-2.97,2.38Z"/><path d="M516.67,1207.75c-1.33,0-2.56-.88-2.94-2.22-1.91-6.82-.31-14.72,4.29-21.14,.92-1.29,1.68-2.51,2.39-3.65,2.27-3.66,4.41-7.12,9.77-9.41,1.55-.66,3.34,.06,4,1.61,.66,1.55-.06,3.34-1.61,4-3.59,1.53-4.94,3.71-6.98,7.01-.77,1.25-1.6,2.58-2.62,3.99-3.53,4.92-4.79,10.88-3.37,15.93,.45,1.62-.49,3.31-2.11,3.76-.28,.08-.55,.11-.83,.11Z"/></g><g><g><path class="cls-10" d="M1591.28,1829.89c-.09-2.26-2.15-56.93,0-82.89,2.2-26.51-8.17-58.79-8.17-58.79,0,0-33.23,49.57-200.38,48.42-139.11-.96-204.76-76.17-222.87-101.38-.56-.78-1.02-1.6-1.43-2.44l-.32-.04s-18.61,39.31-24.38,92.34c-5.64,51.84-.26,102.54-.01,104.79h457.55Z"/><path class="cls-7" d="M1674.94,1376.44c-1.03-14.3-2.76-28.5-4.98-42.63,1.05-16.3,6.04-100.22-.19-135.53-6.92-39.19-24.21-56.51-51.17-74.93-8.72-5.96-21.75-12.73-35.74-19.49-1.03-1.18-2.15-2.28-3.38-3.26-4.04-3.25-8.99-5.1-13.85-6.89-12.46-4.6-24.92-9.21-37.38-13.81-5.5-2.03-11.18-4.18-15.3-8.35-6.15-6.22-7.59-15.77-6.79-24.48,.75-8.16,3.15-16.09,4.13-24.22l-2.28,.27c.16-1.77-.03-3.65-.39-5.41-3.17-.63-6.36-1.19-9.56-1.67,.57,3.44,1.2,6.76,1.9,9.91-4.07,2.22-5.62,2.25-10.02,3.65-4.86,1.15-11.91,2.46-16.72,3.77-3.92,.78-12.72,.75-16.68,1.32-7.75,1.12-20.33,.07-32.84-1.61l-6.59,.78c-.2-.61-.44-1.21-.65-1.82-14.89-2.27-28.31-5.04-31.63-5.62-7.73-2.92-19.49-6.06-26.79-9.93,1.02-5.24,2.37-9.61,3.71-13.13-3.63-1.05-7.24-2.23-10.81-3.58-3.21,9.56-7.71,19.27-15.92,25.14-6.69,4.78-14.94,6.4-23.1,7.98l1.59-1.47c-1.73,0-3.46,.02-5.2,.03,.96,6.23,3.92,28.03,2.96,56.16-1.14,33.43-11.61,87.61-41.14,164.84-19.75,51.66-59.12,121.29-83.05,161.77,3.38,40.41,5.53,86.82,1.98,103.37-7.44,34.68-18.66,59.94-18.55,66.86,.08,4.8-7.68,23.5-12.43,34.48-1.95,4.5-1.76,9.55,.35,13.87,.41,.84,.87,1.66,1.43,2.44,18.11,25.21,83.77,100.42,222.87,101.38,167.15,1.15,200.38-48.42,200.38-48.42l15.52-107.47c1.09-1.07,2.22-2.09,3.26-3.22,14.67-15.8,23.56-35.97,32.19-55.73,7.82-17.91,15.64-35.81,23.46-53.72,6.36-14.57,12.77-29.28,15.83-44.89,3.01-15.35,2.69-31.15,1.56-46.74Z"/><path class="cls-13" d="M1250.3,784.54s10.63-4.93,19.59-24.59c7.74-17.28,11.34-57.95,19.91-67.87,4-4.18,53.32-16.47,62.37,10.84,5.76,17.99,1.09,55.8,18.56,71.72,3.28,2.61,17.2,7,17.2,7,0,0-.63,14.24,25.25,25.48,12.44,4.56,23.2,20.49,38.5,23.98,18.34,3.89,40.33-6.05,40.33-6.05,0,0,38.94-5.15,35.58,31.02-3.28,36.91-33.27,41.92-33.27,41.92,0,0-4.07,70.39,3.69,117.65,.58-.36,1.16-.72,1.75-1.07,.48-.28,.95-.28,1.36-.14,.05-.03,.1-.07,.16-.1,.28-1.15,.6-2.29,1-3.42,.17-.48,.5-.73,.88-.83-.07-1.23-.16-2.46-.3-3.68-.21-1.95,2.82-2.3,3.03-.34,.26,2.44,.38,4.88,.44,7.33,.52,1.22,.98,2.72,1.3,4.31,.36,1.77,.55,3.65,.39,5.41l2.28-.27,6.98-.83s15.54-1.02,26.34-4.47c10.79-3.46,17.74-7.97,17.74-7.97,0,0,20.13-.04,32.63-8.16,12.5-8.13,15.99-23.43,15.99-23.43,0,0,9.33,3.42,18.09,1.68,8.75-1.73,17-7.89,17-7.89,0,0-18.92-9.05-20.74-18.53-6.21-35.09-3.59-117.41-12.44-162.64-8.85-45.23-36.02-48.12-36.02-48.12,0,0-23.58-89.79-105.95-112.54-46.17-12.67-107.2-5.02-151.44,5.95-18.16,4.29-76.77,33.3-91.65,79.72-11.06,34.06,10.21,70.43,17.21,92.75,2.47,8.67-4.7,24.39-4.7,24.39,0,0,5.43,6.69,15.88,.03l.15-3.33-5.08-44.91Z"/><path class="cls-4" d="M1384.84,1026.43c3.32,.58,16.75,3.35,31.63,5.62,2.39,.36,4.81,.71,7.24,1.04,12.51,1.69,25.08,2.73,32.84,1.61,3.95-.57,12.76-.54,16.68-1.32,4.82-1.31,11.86-2.62,16.72-3.77,4.4-1.4,5.95-1.43,10.02-3.65-.7-3.15-1.33-6.48-1.9-9.91-.02-.13-.04-.27-.07-.4-7.76-47.27-3.69-117.65-3.69-117.65,0,0,29.98-5.01,33.27-41.92,3.36-36.17-35.58-31.02-35.58-31.02,0,0-21.99,9.94-40.33,6.05-15.31-3.49-26.06-19.42-38.5-23.98-25.88-11.24-25.25-25.48-25.25-25.48,0,0-13.92-4.39-17.2-7-17.46-15.92-12.79-53.73-18.56-71.72-9.06-27.31-58.37-15.02-62.37-10.84-8.57,9.92-12.17,50.59-19.91,67.87-8.96,19.66-19.59,24.59-19.59,24.59l5.08,44.91-.15,3.33-2.2,48.39,3.42,30.19s25.58,51.07,48.62,76.8c12.88,14.95,62,4.64,62,4.64,0,0-2.65,3.59-5.31,10.57-1.34,3.52-2.69,7.89-3.71,13.13,7.3,3.87,19.06,7.01,26.79,9.93Z"/></g><path class="cls-1" d="M1308.32,1031.46c-.18-1.17-.3-1.86-.3-1.86h-32.49s.28,.85,.71,2.47c3.14,11.65,14.75,63.84-6.1,135.91-18.66,64.52-59.82,155.04-87.08,205.43-1.37-10.31-2.85-20.6-4.29-30.89l-52.25,62.33c-7.49,41.38-16.6,90.22-24.09,131.59-2.1,11.62-4.22,23.36-3.76,35.17,1.02,26.14,15.99,51.03,57.26,75.32,0-7.33-.35-14.7,1.35-21.89,1.48-6.25,3.42-12.37,5.52-18.44,1.97-5.67,4.18-11.23,5.62-17.06,2.39-9.73,14.75-43.31,18.61-70.95,.65-4.66,2.62-9.04,3.17-13.72,1.24-10.6,.7-21.46,.31-32.1-.43-11.86-1.18-23.7-1.78-35.55-.4-7.85-.77-15.69-1.32-23.53,23.95-40.55,63.07-109.79,82.74-161.24,29.52-77.23,40-131.42,41.14-164.84,.96-28.13-2-49.94-2.96-56.16Z"/><g><path d="M520.31,1184.62c-1.58,2.31-3.19,4.68-3.84,7.4-.86,3.61,.07,7.43-.53,11.09-.12,.73-.34,1.51-.94,1.95-.9,.66-2.16,.24-3.14-.29-6.59-3.56-10.59-11.4-9.59-18.83,.22-1.65,.68-3.29,1.58-4.68,.91-1.42,2.24-2.51,3.55-3.56,2.19-1.77,4.44-3.54,7.07-4.55,2.33-.89,11.22-2.72,12.71,.4,1.2,2.53-5.28,8.79-6.86,11.08Z"/><path class="cls-21" d="M1358.05,1016.5s14.41,10.73,43.1-5.94c41.92-24.88,50.83-71.37,50.83-71.37,0,0-22.04,29.34-49.91,39.95-32.93,11.22-47.09,18.4-44.93,18.13l.91,19.23Z"/><path d="M1306.21,879.7c-.84,0-1.68-.35-2.28-1.02-6.46-7.26-9.2-12.61-8.89-17.34,.33-4.95,3.92-8.03,7.39-11.01,3.56-3.05,7.24-6.21,8.49-11.76,1.45-6.82-2.21-20.76-3.75-25.55-.51-1.6,.37-3.32,1.97-3.83,1.61-.52,3.32,.37,3.83,1.97,.25,.77,5.99,18.87,3.9,28.72-1.71,7.56-6.57,11.74-10.48,15.09-3.17,2.72-5.13,4.51-5.28,6.79-.19,2.84,2.28,7.17,7.36,12.87,1.12,1.26,1.01,3.19-.25,4.31-.58,.52-1.31,.77-2.03,.77Z"/><path d="M1389.44,765.75c-.59,0-1.19-.17-1.72-.53-.66-.45-16.63-10.97-35.86-1.35-1.51,.75-3.34,.14-4.09-1.36-.76-1.51-.14-3.34,1.36-4.09,22.52-11.28,41.25,1.23,42.04,1.77,1.39,.95,1.75,2.85,.79,4.24-.59,.86-1.55,1.33-2.52,1.33Z"/><path d="M1286.51,777.66c-.54,0-1.09-.14-1.59-.45-12.85-7.85-27.82-1.6-27.97-1.54-1.55,.66-3.34-.05-4-1.6-.66-1.55,.05-3.34,1.59-4,.73-.31,17.98-7.58,33.57,1.93,1.44,.88,1.89,2.76,1.01,4.19-.57,.94-1.58,1.46-2.61,1.46Z"/><path d="M1488.3,900.85c-1.36,0-2.6-.92-2.96-2.3-.41-1.63,.58-3.29,2.21-3.71,14.44-3.66,31.69-10.69,37.07-32.78,3-11.64-.61-23.16-9.21-29.41-8.55-6.22-19.77-5.77-30.77,1.22-1.42,.9-3.3,.48-4.21-.94-.91-1.42-.48-3.31,.94-4.21,13.03-8.28,27.1-8.66,37.63-1,10.63,7.73,15.16,21.79,11.54,35.83-6.21,25.5-26.65,33.45-41.49,37.21-.25,.06-.51,.09-.75,.09Z"/><path d="M1495.68,867.2c-.5,0-1.01-.12-1.48-.39-1.47-.82-2-2.67-1.18-4.14,.14-.25,3.46-6.15,9.34-10.83,1.32-1.05,3.24-.83,4.29,.49,1.05,1.32,.83,3.24-.49,4.29-4.9,3.89-7.78,8.97-7.81,9.02-.56,1-1.6,1.56-2.67,1.56Z"/><path d="M1332.82,999.23c-9.95,0-18.3-1.47-23.65-4.61-11.07-6.16-26.66-22.83-34.68-37.14-15.76-27.88-24.32-53.69-24.1-72.67,.15-12.83,.42-20.58,.69-28.08,.22-6.29,.43-12.24,.53-20.53,.49-12.29-.95-23.04-2.34-33.45-.8-5.96-1.55-11.59-1.93-17.29-.11-1.68,1.16-3.13,2.85-3.24,1.66-.14,3.13,1.16,3.24,2.85,.36,5.49,1.1,11.02,1.88,16.87,1.43,10.66,2.91,21.68,2.4,34.41-.09,8.27-.3,14.25-.53,20.58-.26,7.46-.53,15.18-.68,27.94-.21,17.92,8.07,42.64,23.32,69.6,7.56,13.48,22.09,29.11,32.39,34.83,15.1,8.87,59.57,2.01,89.84-13.79,18.79-9.34,36.31-24.13,52.12-43.98,1.05-1.32,2.97-1.54,4.29-.49,1.32,1.05,1.53,2.97,.49,4.29-16.37,20.55-34.58,35.9-54.12,45.61-22.04,11.51-50.67,18.26-71.99,18.26Z"/><path class="cls-21" d="M1371.09,831.14c-6.71,.01-12.04-7.59-11.49-15.85-.18-8.18,5.78-14.82,12.49-14.84,6.71-.01,12.04,7.59,11.49,15.85-.47,9-6.43,15.64-12.49,14.84Z"/><path class="cls-21" d="M1281.01,841.54c-5.48-.06-9.8-6.54-10.62-13.92-.15-1.36-.12-2.74,.11-4.1,1.21-7.26,6.05-12.73,11.51-12.67,5.97,.07,11.31,7.67,10.75,15.93-.56,8.27-5.04,14.74-11.75,14.75Z"/><g><path class="cls-6" d="M1288.11,907.35s14.8,39.89,43.33,28.55c24.37-9.59,26.86-37.6,26.86-37.6,0,0-14.8,5.04-35.49,7.67-17.64,2.67-34.7,1.39-34.7,1.39Z"/><path d="M1321.42,940.98c-3.75,0-7.43-.79-11-2.38-16.54-7.36-24.83-29.26-25.17-30.19-.36-.97-.2-2.06,.42-2.89,.63-.83,1.65-1.28,2.66-1.21,.17,.01,16.94,1.22,34.02-1.36,20.19-2.57,34.82-7.49,34.97-7.54,.98-.33,2.05-.15,2.87,.49,.81,.64,1.24,1.64,1.15,2.67-.11,1.22-2.95,30-28.78,40.17-3.77,1.5-7.49,2.25-11.14,2.25Zm-28.53-30.35c3.11,6.36,9.92,17.92,20.02,22.4,5.56,2.47,11.25,2.48,17.39,.03,16.57-6.52,22.27-22.46,24.12-30.39-6.04,1.72-17.27,4.55-31.24,6.32-12.12,1.83-23.87,1.83-30.3,1.64Z"/></g><path d="M1386.36,784.13c-.1,0-.19,0-.29-.01-27.67-2.57-32.61-37.24-36.97-67.82-1.78-12.5-3.47-24.31-6.54-32.4-1.86-4.76-5.47-8.16-9.64-9.07-3.54-.77-7.01,.36-10.03,3.27-1.21,1.17-3.14,1.14-4.31-.07-1.17-1.21-1.14-3.14,.07-4.31,4.49-4.33,10.01-6.06,15.57-4.84,6.17,1.34,11.41,6.14,14.03,12.83,3.33,8.75,5.06,20.88,6.89,33.73,4.04,28.35,8.62,60.49,31.5,62.61,1.68,.15,2.91,1.64,2.75,3.32-.15,1.58-1.48,2.77-3.04,2.77Z"/><path d="M1420.9,811.48c-5.89,0-39-2.96-47.13-68.47-.21-1.67,.98-3.19,2.65-3.4,1.67-.21,3.2,.98,3.4,2.65,7.99,64.34,40.14,63.19,41.5,63.11,1.76-.1,3.12,1.17,3.23,2.85,.11,1.67-1.14,3.12-2.81,3.24-.11,0-.4,.02-.85,.02Z"/><path d="M1239.5,791.06c-1.34,0-2.56-.88-2.94-2.23-.45-1.62,.5-3.3,2.12-3.76,27.63-7.69,33.07-36.77,37.86-62.43,4.09-21.89,7.97-42.58,27.01-40.32,1.67,.2,2.87,1.71,2.67,3.39-.2,1.67-1.7,2.88-3.39,2.67-12.7-1.47-16.01,12.47-20.3,35.38-4.87,26.05-10.93,58.48-42.23,67.19-.27,.08-.55,.11-.82,.11Z"/><path d="M1453.09,831.87c-1.22,0-2.45-.08-3.67-.24-7.13-.92-12.96-4.37-16.44-9.72-.92-1.41-.51-3.3,.9-4.22,1.41-.92,3.3-.52,4.22,.9,2.48,3.82,6.79,6.31,12.11,7,5.22,.67,10.6-.5,14.77-3.21,1.41-.92,3.3-.52,4.22,.9,.92,1.41,.52,3.3-.9,4.22-4.38,2.85-9.77,4.38-15.21,4.38Z"/><path d="M1497.68,924.39c-.88,0-1.76-.38-2.36-1.11-1.07-1.3-.88-3.23,.42-4.29,11.06-9.07,29.64-27.22,44.3-45.62,25.04-30.56,36.71-64.32,34.73-100.37-3.87-74.16-52.7-132.11-121.5-144.2-70.53-12.39-111.94,5.79-112.35,5.98-1.54,.69-3.34,.01-4.03-1.52-.69-1.54-.01-3.34,1.52-4.03,1.74-.79,43.54-19.15,115.91-6.43,71.66,12.59,122.51,72.82,126.54,149.88,2.07,37.61-10.06,72.78-36.07,104.53-14.91,18.72-33.87,37.23-45.17,46.5-.57,.46-1.25,.69-1.93,.69Z"/><path d="M1236.4,836.14c-.64,0-1.29-.2-1.84-.62-1.34-1.02-1.61-2.93-.59-4.27,11.69-15.47,6.76-25.91-.71-41.71-6.91-14.63-15.51-32.84-11.62-60.68,6.37-47.83,56.72-91.57,91.95-92.49,1.68-.13,3.08,1.29,3.13,2.97,.04,1.68-1.29,3.08-2.97,3.13-32.62,.85-80.22,43.29-86.06,87.21-3.64,26.07,4.19,42.64,11.1,57.25,7.5,15.87,13.97,29.58,.06,47.99-.6,.79-1.51,1.21-2.44,1.21Z"/><path d="M1643.86,971.17c-5.2,0-9.79-1.69-13.7-5.06-11.81-10.16-16.79-34.91-15.23-75.65,3.91-81.67-10.86-136.49-39.52-146.66-1.59-.56-2.41-2.31-1.85-3.89,.56-1.59,2.3-2.41,3.9-1.85,31.79,11.29,47.67,66.93,43.57,152.67-1.82,47.58,6.12,64.75,13.11,70.76,3.71,3.19,8.16,4.23,13.62,3.2,1.68-.3,3.25,.77,3.57,2.43,.31,1.66-.77,3.25-2.43,3.56-1.74,.33-3.42,.49-5.04,.49Z"/><path d="M1589.48,1004.23c-1.35,0-2.59-.91-2.95-2.28-.42-1.63,.55-3.3,2.18-3.72,4.17-1.08,9.95-5.46,13.47-12.8,3.43-7.15,5.82-19.44-2.25-37.44-.69-1.54,0-3.34,1.53-4.03,1.54-.69,3.34,0,4.03,1.53,9.03,20.13,6.17,34.27,2.19,42.58-4.66,9.72-12.3,14.73-17.43,16.06-.26,.07-.51,.1-.77,.1Z"/><path d="M1520.31,1025.48c-1.67,0-3.02-1.33-3.05-3-.03-1.69,1.32-3.07,3-3.1,16.7-.26,29.98-5.02,38.42-13.76,7.29-7.55,10.86-17.91,10.6-30.77-.03-1.68,1.3-3.08,2.99-3.11,1.67,0,3.08,1.3,3.11,2.99,.29,14.55-3.85,26.37-12.31,35.13-9.59,9.94-24.36,15.34-42.71,15.62h-.05Z"/></g><path d="M1499.97,1029c-1.33,0-2.54-.87-2.93-2.2-7.51-26.01-4.68-108.91-4.56-112.42,.06-1.65,1.41-2.94,3.04-2.94,1.79,.06,3.11,1.47,3.05,3.16-.03,.85-2.91,85.44,4.33,110.52,.47,1.62-.47,3.31-2.08,3.78-.28,.08-.57,.12-.85,.12Z"/><path d="M1360.56,1011.94c-.11,0-.23,0-.35-.02-1.67-.19-2.88-1.7-2.69-3.37,.42-3.72,.15-5.53-.13-7.44-.22-1.48-.44-3.01-.31-5.17,.1-1.68,1.55-2.94,3.22-2.87,1.68,.1,2.97,1.54,2.87,3.22-.09,1.54,.06,2.59,.26,3.93,.31,2.11,.66,4.5,.15,9-.17,1.56-1.5,2.71-3.03,2.71Z"/><g><g><path class="cls-7" d="M1276.25,1032.08c-3.91,.14-7.82,.31-11.72,.51-21.32,1.11-43.67,2.7-63.68,10.79-17.4,7.04-26.68,23.15-36.15,38.35-1.94,3.11-3.86,6.23-5.78,9.36-25.93,42.17-60.49,124.04-68.97,144.46h-2.27l-20.34-176.79-4.16,.43c.2,.76,.37,1.48,.58,2.26l-.31-.62c-17.5,15.15-60.56,11.99-84.42,15.59-.65-2.48-1.23-4.98-1.86-7.47v.25c-.02-.38-.06-.77-.09-1.16l-11.09,1.14c0,6.84,4.09,12.03-1.68,98.81-5.77,86.79,6.44,278.34,62.25,287.36,45.04,7.28,104.6-47.78,151.09-111.01,.8,4.38,1.89,8.7,3.27,12.93,.67,4.39,1.4,9.9,2.15,16.2,27.26-50.38,68.43-140.93,87.1-205.48,20.85-72.07,9.24-124.26,6.1-135.91Z"/><path class="cls-4" d="M977.15,1068.95c.63,2.49,1.21,4.99,1.86,7.47,23.86-3.59,66.92-.43,84.42-15.59l.31,.62c-.21-.78-.38-1.5-.58-2.26-17.92-68.79,9.26-65.11,16.21-124.51,.9-8.4,5.77-19.05,6.33-30.54,.31-12.21,14.84-31.24,5.21-35.78-27.46-8.48-30.82,31.14-43.71,47.88-16.45-35.73-11.68-147.66-35.42-161.59-13.85-2.99-9.78,12.46-9.15,31.58,.52,19.26,2.22,50.28,3.45,72.59l1.01,1.37c-14.35,50.13-27.3-34.57-34.99-47.63l1.96,2.67c-3.81-18.87-3.39-39.92-10.8-58.11-8-19.64-23.04-8.49-22.32,13.02l3,4.09c-.51,.45-.95,.94-1.35,1.47-20.81-8.73-20.13,58.41-16.67,70.9,1.2,7.62,16.84,50.27,12,54.47-6.42,6.39-14-7.77-22.21-19.27-10.34-10.22-11.56-63.45-31.14-45.83-17.07,65.72,85.68,145.69,92.48,232.1,.03,.38,.07,.77,.1,1.16v-.25Z"/></g><path d="M1063.74,1064.5c-1.47,0-2.76-1.06-3.01-2.55-1.59-9.54-2.94-16.25-4.03-21.63-2.54-12.58-3.59-17.79-2.4-33.3,.93-10.69,4.28-16.8,7.82-23.28,2-3.65,4.06-7.42,5.9-12.35,5.01-13.92,7.64-25.65,8.28-36.88,.42-3.96,1.56-8.07,2.76-12.43,1.6-5.81,3.26-11.81,3.57-18.1,.13-5.15,2.45-11.1,4.69-16.86,3.29-8.45,5.38-14.55,2.27-16.01-3.51-1.65-7.3-.89-9.85,.05-6.24,2.29-12.05,7.95-15.17,14.76-2.26,4.47-3.46,8.29-4.62,11.98-1.97,6.26-3.83,12.17-9.93,19.67-3.3,4.43-7.97,8.23-12.93,12.26-9.15,7.43-18.61,15.12-22.81,29.03-.49,1.61-2.19,2.53-3.8,2.04-1.61-.49-2.53-2.19-2.04-3.8,4.74-15.7,15.39-24.36,24.8-32,4.65-3.78,9.04-7.35,11.96-11.27,5.44-6.7,7.06-11.82,8.92-17.76,1.23-3.92,2.51-7.98,4.94-12.79,3.71-8.14,10.85-15.02,18.56-17.85,5.23-1.92,10.26-1.86,14.55,.16,8.5,4,4.42,14.49,.81,23.74-2.05,5.26-4.17,10.71-4.28,14.87-.35,7.03-2.17,13.65-3.79,19.5-1.13,4.11-2.21,7.99-2.56,11.3-.66,11.68-3.41,23.95-8.63,38.48-2.01,5.38-4.28,9.53-6.28,13.18-3.37,6.15-6.28,11.47-7.09,20.85-1.12,14.63-.19,19.25,2.3,31.6,1.09,5.43,2.46,12.19,4.06,21.84,.28,1.66-.84,3.23-2.51,3.51-.17,.03-.34,.04-.5,.04Z"/><path d="M977.47,1078.52c-1.66,0-3.03-1.34-3.05-3.01-.19-14.05-3.84-30.88-10.86-50.02-7.16-19.53-17.55-39.48-29.25-56.17-8.57-13.21-20.85-34.04-29.82-49.25-2.66-4.51-5.02-8.52-6.92-11.7l-2.38-4.25c-5.52-9.85-8.85-15.79-12.31-29.18-5.27-19.36-5.58-33.04-.91-40.6,2.55-3.78,6.52-5.76,10.42-5.28,2.83,.34,8.1,2.34,11.59,11.86,1.47,4,2.71,8.3,4.03,12.86,2.67,9.23,5.43,18.77,10.27,26.36,1.23,1.72,2.53,3.64,3.82,5.53,4.13,6.07,9.26,13.63,12.28,13.92,.17,.02,.59,.06,1.3-.61,1.44-4.15-5.35-26.4-8.63-37.16-2.09-6.85-3.74-12.26-4.13-14.76-3.7-16.83-2.44-25.75-.54-39.25,.59-4.17,1.25-8.89,1.85-14.45,1.44-15.47,8.13-21.49,13.9-21.96,4.43-.36,10.02,2.52,12.38,11.66,3.07,11.11,2.5,22.08,2,31.76-.31,6-.58,11.19,.08,15.35,2.64,17.7,9.7,35.09,17.87,55.22l.42,1.04c.63,1.56-.12,3.34-1.68,3.97-1.56,.63-3.34-.12-3.97-1.68l-.42-1.04c-7.97-19.64-15.5-38.19-18.25-56.59-.75-4.77-.46-10.51-.14-16.59,.48-9.22,1.01-19.66-1.81-29.88-1.18-4.56-3.49-7.3-6-7.16-3.29,.26-7.3,5.54-8.32,16.49-.62,5.71-1.29,10.48-1.88,14.69-1.87,13.3-3,21.33,.49,37.27,.36,2.26,2.04,7.75,3.98,14.11,8.8,28.84,11.18,39.72,7.04,43.31-2.15,2.15-4.52,2.46-6.12,2.3-5.87-.56-10.91-7.98-16.74-16.57-1.26-1.85-2.53-3.73-3.83-5.54-5.4-8.46-8.28-18.43-11.07-28.08-1.29-4.45-2.5-8.65-3.9-12.45-1.73-4.72-4.14-7.61-6.6-7.9-1.95-.24-3.63,1.16-4.56,2.54-3.57,5.8-3,18.52,1.68,35.73,3.27,12.66,6.28,18.02,11.74,27.76l2.34,4.2c1.85,3.1,4.22,7.13,6.89,11.64,8.94,15.16,21.18,35.93,29.62,48.94,11.94,17.02,22.58,37.47,29.92,57.49,7.25,19.78,11.03,37.29,11.23,52.03,.02,1.69-1.32,3.07-3.01,3.09h-.04Z"/><path d="M1045.94,916.11c-1.36,0-2.6-.92-2.95-2.29-6.97-27.26-11.01-46.64-13.75-76.91l-.27-3.04c-2.16-23.97-6.64-73.83-17.82-76.25-2.32-.5-3.92-.39-4.75,.33-2.36,2.04-1.8,10.21-1.27,18.11,.21,3.17,.44,6.54,.56,10.04,.16,8.54,.53,15.73,.97,24.04,.37,7.09,.8,15.12,1.13,25.18,.15,4.52,.46,8.73,.75,12.8,1.09,15,2.03,27.96-10.07,29.03-12.27,0-24.96-50.91-26.37-56.73-2.03-8.21-3.06-17.01-4.06-25.53-1.46-12.43-2.97-25.29-7.59-36.64-2.34-5.75-5.46-8.83-8.32-8.21-4.2,.9-8.5,8.79-8.13,19.98,.06,1.68-1.26,3.09-2.95,3.15-1.62,.12-3.09-1.26-3.15-2.95-.45-13.46,5-24.46,12.96-26.15,2.88-.6,10.13-.69,15.24,11.88,4.93,12.12,6.49,25.39,8,38.23,1.02,8.71,1.99,16.94,3.93,24.79,5.97,24.64,15.91,50.22,20.19,52.07,5.31-.67,5.38-6.81,4.24-22.47-.29-3.94-.61-8.4-.76-13.04-.33-10-.75-18-1.13-25.06-.44-8.37-.82-15.6-.98-24.21-.11-3.38-.34-6.69-.55-9.79-.73-10.68-1.3-19.11,3.36-23.14,2.4-2.07,5.68-2.62,10.03-1.68,14.38,3.1,18.9,40.4,22.61,81.66l.27,3.03c2.7,29.85,6.7,49,13.59,75.95,.42,1.63-.57,3.29-2.2,3.71-.25,.07-.51,.1-.76,.1Z"/></g><path d="M1087.98,1243.32c-.38,0-.77-.07-1.15-.23-1.56-.64-2.31-2.42-1.67-3.98,.41-1.01,41.59-101.56,71.15-149.63,1.92-3.13,3.85-6.25,5.79-9.37l1.47-2.37c9.19-14.82,18.7-30.15,36.13-37.2,20.06-8.11,42.04-9.84,64.67-11.01,15.98-.83,33.43-1.23,53.38-1.17,8.19,0,16.05-3.47,21.61-9.52,5.91-6.42,7.36-15.66,8.42-22.4,.26-1.67,1.84-2.78,3.48-2.54,1.66,.26,2.8,1.82,2.54,3.49-1.11,7.09-2.79,17.8-9.95,25.58-6.72,7.3-16.21,11.49-26.05,11.49-1.09,0-2.07,0-3.09,0-18.58,0-34.97,.38-50.03,1.16-22.09,1.15-43.51,2.82-62.69,10.57-15.58,6.3-24.55,20.77-33.23,34.76l-1.47,2.37c-1.93,3.11-3.86,6.22-5.77,9.34-29.3,47.65-70.29,147.73-70.7,148.74-.48,1.18-1.62,1.9-2.83,1.9Z"/><path d="M1446.65,1037.96c-19.62,0-39.25-2.46-58.2-7.38-7.96-2.06-17.15-4.9-24.98-10.26-8.58-5.87-14.3-14.23-15.7-22.92-.22-1.36,.5-2.7,1.76-3.26,2.52-1.13,5.65-1.66,9.87-1.66,1.68,0,3.05,1.36,3.05,3.05s-1.37,3.05-3.05,3.05c-1.99,0-3.65,.13-5.03,.41,1.75,6.13,6.22,11.96,12.55,16.3,7.05,4.83,15.61,7.45,23.06,9.39,33.23,8.61,68.56,9.5,102.16,2.57,5.4-1.11,10.75-2.68,13.27-6.57,1.39-2.14,1.51-5.09,.34-7.89-1.18-2.8-3.37-4.77-5.87-5.28-1.65-.33-2.72-1.95-2.38-3.6,.33-1.65,1.95-2.71,3.6-2.38,4.48,.91,8.32,4.24,10.28,8.9,1.96,4.66,1.64,9.73-.85,13.57-3.74,5.78-10.46,7.85-17.16,9.23-15.34,3.16-31.03,4.74-46.72,4.74Z"/><path d="M1034.9,1459.06c-2.99,0-5.94-.23-8.84-.7-62.73-10.14-69.52-219.55-64.8-290.58,4.69-70.67,2.81-87.14,2.01-94.17-.19-1.68-.34-3.01-.34-4.43,0-1.69,1.37-3.05,3.05-3.05s3.05,1.36,3.05,3.05c0,1.08,.12,2.14,.3,3.74,.89,7.81,2.74,24.05-1.99,95.27-6.29,94.78,8.66,275.9,59.69,284.15,2.61,.42,5.27,.63,7.97,.63,70.66,0,171.29-140.28,202.55-218.56,.62-1.56,2.39-2.33,3.96-1.7,1.56,.63,2.32,2.4,1.7,3.96-32.65,81.75-133.94,222.38-208.31,222.38Z"/><path d="M1184.98,1373.2c-1.49-15.27-2.63-25.82-2.79-27.33-.18-1.67-1.69-2.89-3.36-2.7-1.68,.18-2.88,1.69-2.7,3.36,.05,.45,1.65,15.24,3.61,36.06,1.55-3.24,3.29-6.38,5.25-9.39Z"/><path d="M1602.2,1556.08c-1.66-.26-3.21,.92-3.45,2.58l-18.53,128.32c-4.16,5.09-43.55,47.52-197.46,46.59-138.46-.95-203.72-76.87-220.42-100.11-2.82-3.92-3.36-8.9-1.45-13.32l.78-1.8c5.5-12.61,22.23-51,30.41-100.24,2.99-18.03-.41-69.32-4.02-111.32-1.77,2.37-3.62,4.68-5.57,6.9,3.37,40.37,6.29,87.01,3.57,103.41-8.06,48.5-24.56,86.36-29.98,98.81l-.79,1.82c-2.73,6.31-1.93,13.7,2.09,19.3,17.13,23.83,83.99,101.67,225.33,102.65,1.94,.01,3.86,.02,5.78,.02,161.89,0,195.78-47.73,197.16-49.79,.25-.38,.42-.81,.48-1.26l18.65-129.11c.24-1.66-.91-3.21-2.58-3.45Z"/><path class="cls-11" d="M1167.18,1450.25c-.17,0-.35-.01-.52-.04-1.22-.21-2.19-1.14-2.46-2.35l-8.07-36.62c-.27-1.23,.24-2.5,1.29-3.19,11.78-7.85,82.35-146.01,109.8-240.9,23.17-80.1,5.6-136.04,5.42-136.59-.3-.93-.14-1.95,.44-2.74,.57-.79,1.49-1.26,2.47-1.26h32.49c1.48,0,2.74,1.06,3,2.51,.18,1.02,4.44,25.29,3.31,58.66-.99,28.9-8.96,81.12-41.34,165.83-29.29,76.63-102.5,194.08-103.23,195.26-.56,.9-1.55,1.43-2.59,1.43Zm-4.7-38.55l6.06,27.49c15.64-25.56,73.6-121.99,98.76-187.81,33.77-88.34,40.15-140.58,40.94-163.86,.91-26.64-1.77-47.82-2.82-54.86h-25.85c3.72,14.35,13.94,65.55-6.49,136.18-24.62,85.11-92.01,224.5-110.6,242.86Z"/><path d="M1167.18,1450.25c-.17,0-.35-.01-.52-.04-1.22-.21-2.19-1.14-2.46-2.35l-8.07-36.62c-.27-1.23,.24-2.5,1.29-3.19,11.78-7.85,82.35-146.01,109.8-240.9,23.17-80.1,5.6-136.04,5.42-136.59-.3-.93-.14-1.95,.44-2.74,.57-.79,1.49-1.26,2.47-1.26h32.49c1.48,0,2.74,1.06,3,2.51,.18,1.02,4.44,25.29,3.31,58.66-.99,28.9-8.96,81.12-41.34,165.83-29.29,76.63-102.5,194.08-103.23,195.26-.56,.9-1.55,1.43-2.59,1.43Zm-4.7-38.55l6.06,27.49c15.64-25.56,73.6-121.99,98.76-187.81,33.77-88.34,40.15-140.58,40.94-163.86,.91-26.64-1.77-47.82-2.82-54.86h-25.85c3.72,14.35,13.94,65.55-6.49,136.18-24.62,85.11-92.01,224.5-110.6,242.86Z"/><path class="cls-7" d="M1627.13,1562.54c5.5,17.9,19.89,32.82,37.58,38.96,6.04,2.1,12.46,3.22,18.84,2.76,14.86-1.07,31.19-5.65,39.4-18.53,11.76-18.46,13.44-32.39,13.44-52.12l-109.25,28.93Z"/><path d="M1680.69,1607.42c-5.47,0-11.17-1.02-16.98-3.04-18.58-6.45-33.71-22.14-39.49-40.95-.5-1.61,.41-3.32,2.02-3.81,1.62-.5,3.32,.41,3.81,2.02,5.22,16.98,18.88,31.15,35.66,36.98,6.12,2.12,12.03,3,17.62,2.6,12.49-.9,29.06-4.6,37.04-17.13,11.02-17.3,12.96-30.06,12.96-50.48,0-1.69,1.36-3.05,3.05-3.05s3.05,1.36,3.05,3.05c0,21.17-2.15,35.29-13.92,53.76-9.35,14.67-27.87,18.94-41.76,19.94-1.02,.07-2.04,.11-3.08,.11Z"/><g><g><g><path class="cls-5" d="M1536.16,1406.94l126.48,8.09,22.64,1.45,89.9,5.75s129.02-32.54,175.53-42.54c.28-.15,.57-.29,.85-.44,1.12-.58,2.32-1.24,2.85-2.39,.58-1.27,.17-2.75-.25-4.09-5.18-16.47-6.08-13.87-21.15-8.45-9.45,3.4-18.78,4.01-28.67,4.65l9.02-2.64c-17.4,2.23-35.23,1.99-52.74,.45-17.12-1.5-34.49-4.17-51.36-.89-15.23,2.96-28.97,20.9-34.84,36.56-1.08-2.02-2.19-4.01-3.34-5.91,.04,0-.07-.16-.27-.43-43.73-71.53-132.26-58.38-158.67-59.5-27.37-1.15-53.03-28.82-53.03-28.82l-130.24,77.97c-10.89,5.56-90.28,52.56-102.62,61.43-.9,.65,.76,2.39,.28,3.39-1.1,2.3,.63,4.85,1.85,7.08,.66,1.2-1.16,3.86-3.35,6.18l-6.85,4.09s1.35,.88,3.49,2.28c2.39,2.49,6.13,4.88,9.56,6.87-.28,0-.59-.02-.85,0-4.17,.14-10.51,5.68-13.9,7.93,2.34,1.94,4.03,4.66,4.75,7.61,.22,.89,.37,1.81,.61,2.7-3.66,1.84-7.35,3.59-10.87,5.68,2.35,1.3,6.37,7.76,6.62,10.78,.3,3.48,.65,9.4-2.58,10.73-3.23,1.33-8.84,6.97-6.16,5.66,.5-.24,1.01-.47,1.51-.71l79.19-42.27,146.6-78.25Z"/><path class="cls-14" d="M1950.71,1379.69c-46.51,10-175.53,42.54-175.53,42.54l-89.9-5.75-22.64-1.45-126.48-8.09-146.6,78.25-79.19,42.27-11.78,6.29,308.34,25.36,153.91-30.31s205.19-148.37,206.34-151.83c.21-.63-6.08,.48-16.48,2.72Z"/></g><path d="M1606.93,1562.15c-.07,0-.14,0-.21,0-.05,0-308.39-25.36-308.39-25.36-1.35-.11-2.46-1.1-2.74-2.42-.28-1.33,.36-2.67,1.55-3.31l237.57-126.8c.5-.27,1.1-.38,1.63-.35l238.54,15.26c5.04-1.27,50.01-12.59,94.69-23.5,97.13-23.71,98.04-22.76,99.83-20.85,.76,.82,1.03,2.06,.67,3.12-.4,1.2-1.46,4.39-207.45,153.33-.36,.26-.77,.43-1.2,.52l-153.86,30.29c-.21,.05-.43,.07-.65,.07Zm-297.76-30.6l296.79,24.41,161.26-131.19-230.38-14.74-227.66,121.51Zm467.41-106.53l-158.23,128.73,141.25-27.81c69.28-50.1,168.71-122.48,197.33-144.46-29.69,6.09-118.53,27.96-180.35,43.55Z"/><path d="M1298.59,1536.79c-1.68,0-3.05-1.36-3.05-3.05v-3.8c0-1.13,.62-2.16,1.61-2.69l241.14-128.71c.5-.27,1.09-.38,1.63-.35l239.01,15.29c1.68,.11,2.96,1.56,2.85,3.24-.11,1.68-1.58,2.91-3.24,2.85l-238.15-15.24-238.76,127.43v1.97c0,1.69-1.37,3.05-3.05,3.05Z"/><path d="M1778.74,1419.58c-1.36,0-2.61-.92-2.95-2.3-.41-1.64,.58-3.29,2.21-3.71,.47-.12,47.08-11.88,93.37-23.19,95.38-23.3,96.27-22.35,98.04-20.43,.37,.39,.62,.89,.74,1.42,.19,.69,.33,1.38,.46,2.08,.1,.54,.2,1.08,.35,1.61,.47,1.62-.46,3.31-2.08,3.78-1.64,.47-3.31-.46-3.78-2.08-.16-.53-.27-1.06-.38-1.6-16.43,2.36-117.63,27.26-185.24,44.33-.25,.06-.5,.09-.75,.09Z"/><g><path d="M1763.15,1416.92s5.53-11.88,14.7-12.06c9.16-.18,12.78,8.68,12.78,8.68l-27.48,3.38Z"/><path d="M1763.15,1419.97c-.43,0-.87-.09-1.29-.29-1.52-.71-2.18-2.52-1.47-4.04,.26-.56,6.46-13.61,17.4-13.83,.12,0,.24,0,.36,0,10.87,0,15.13,10.14,15.31,10.58,.64,1.56-.11,3.34-1.67,3.98-1.57,.64-3.34-.11-3.98-1.67-.11-.27-2.94-6.97-9.89-6.78-5.92,.12-10.67,7.48-12,10.31-.52,1.11-1.62,1.75-2.76,1.75Z"/></g></g><path d="M1311.48,1505.67c-1.08,0-2.13-.57-2.68-1.59-.81-1.48-.26-3.33,1.22-4.14,21.73-11.82,212.59-115.55,221.98-117.37,13.69-2.66,27.51-1.21,40.88,.19,13.89,1.45,27,2.83,40.1,.04,6.98-1.48,14.07-3.17,20.93-4.8,19.5-4.65,39.67-9.45,60.13-10.27,26.35-1.06,54.33,12.07,74.86,35.11,1.12,1.26,1.01,3.18-.25,4.31-1.26,1.11-3.18,1.01-4.31-.25-19.33-21.69-45.57-34.03-70.06-33.08-19.87,.79-39.74,5.53-58.96,10.11-6.89,1.64-14.02,3.34-21.07,4.84-14.04,2.98-28.25,1.5-42,.06-12.92-1.35-26.29-2.75-39.08-.27-7.57,1.88-135.86,70.85-220.22,116.75-.46,.25-.96,.37-1.46,.37Z"/><path d="M1775.18,1403.94c-.27,0-.54-.04-.81-.11-1.63-.45-2.58-2.12-2.14-3.75,5.29-19.32,19.6-33.92,36.45-37.19,14.58-2.83,29.5-1.36,43.92,.06,2.76,.27,5.53,.54,8.28,.79,34.71,3.05,63.06,.15,86.68-8.87l1.59-.61c1.56-.6,3.34,.18,3.94,1.76,.6,1.57-.19,3.34-1.76,3.94l-1.59,.61c-24.5,9.36-53.73,12.39-89.39,9.25-2.77-.24-5.55-.52-8.34-.79-13.99-1.38-28.45-2.81-42.16-.15-14.37,2.79-27.12,15.98-31.73,32.81-.37,1.36-1.6,2.25-2.94,2.25Z"/><path d="M1331.04,1479.41c-.57,0-1.15-.16-1.67-.5l-12.86-8.41c-.88-.58-1.4-1.56-1.38-2.62,.02-1.05,.58-2.02,1.48-2.56l233.11-139.39c.92-.54,2.04-.58,2.99-.08,.47,.25,47.77,24.94,79.96,22.71,37.68-2.6,63.61-1.14,84.04,4.72,32.87,9.43,55.89,40.13,56.85,41.43,1,1.35,.72,3.26-.64,4.27-1.35,1-3.26,.72-4.26-.63-.22-.3-22.79-30.35-53.63-39.2-19.72-5.66-44.99-7.05-81.95-4.5-30.9,2.13-73.02-18.23-81.69-22.61l-227.48,136.02,8.78,5.74c1.41,.92,1.81,2.81,.88,4.22-.59,.89-1.56,1.38-2.56,1.38Z"/><path d="M1786.2,1407.28c-.37,0-.74-.07-1.1-.21-1.56-.61-2.34-2.36-1.74-3.93,.33-.85,8.38-20.94,37.29-24.59,15.47-1.95,34.39-1.03,51.08-.21,13.26,.64,24.72,1.21,31.63,.22,15.74-2.25,54.51-13.62,54.9-13.74,1.62-.49,3.31,.45,3.79,2.06,.48,1.62-.45,3.31-2.06,3.79-1.61,.47-39.59,11.62-55.76,13.93-7.48,1.06-19.2,.5-32.79-.17-16.45-.8-35.08-1.71-50.02,.17-25.14,3.17-32.08,20.03-32.36,20.74-.47,1.2-1.63,1.94-2.84,1.94Z"/><path d="M1318.19,1513.62c-1.09,0-2.14-.58-2.69-1.61-.79-1.49-.23-3.33,1.25-4.13l217.98-116.53c.53-.29,1.12-.4,1.72-.35,.79,.08,79.55,7.36,104.92,.1,88.5-25.27,122.86,22.04,124.28,24.07,.96,1.38,.63,3.28-.75,4.25-1.37,.96-3.27,.63-4.24-.75-1.33-1.88-33.51-45.74-117.61-21.71-25.25,7.21-96.85,1.04-106.25,.19l-217.17,116.1c-.46,.24-.95,.36-1.44,.36Z"/></g><path d="M1588.25,1829.75c0,.05,.02,.09,.02,.14h6.09c.29-3.86,2.92-40.4-.02-83.1-1.83-26.43-8.16-58.84-8.22-59.17-.33-1.65-1.94-2.74-3.58-2.41-1.65,.33-2.73,1.93-2.41,3.58,.06,.32,6.32,32.36,8.12,58.41,3.07,44.45,.04,82.17,0,82.54Z"/><path d="M1136.76,1829.89c0-.08,.03-.15,.02-.23-.06-.51-5.66-52.17,0-104.23,5.64-51.86,23.92-90.97,24.1-91.36,.72-1.52,.07-3.34-1.45-4.06-1.52-.72-3.34-.07-4.06,1.45-.19,.4-18.9,40.39-24.65,93.31-5.47,50.28-.57,100.11-.05,105.12h6.09Z"/><path d="M1152.8,1648.11c-.32,0-.64-.05-.95-.15-31.76-10.47-54.87-41.81-56.21-76.22-.47-12.19,1.7-24.21,3.8-35.83,3.75-20.69,7.9-43.25,12.05-65.81,4.15-22.55,8.3-45.1,12.04-65.79,.3-1.66,1.87-2.75,3.54-2.46,1.66,.3,2.76,1.89,2.46,3.54-3.75,20.69-7.9,43.25-12.05,65.81-4.15,22.55-8.3,45.1-12.04,65.79-2.04,11.3-4.16,22.98-3.71,34.5,1.24,31.92,22.64,60.98,52.02,70.66,1.6,.53,2.47,2.25,1.94,3.85-.42,1.28-1.62,2.09-2.9,2.09Z"/><path d="M986.63,1079.04c-13.74,0-21.07-2.44-23.28-7.56-2.93-6.78,5.13-14.09,8.16-16.84,.2-.18,.36-.32,.47-.43,.65-.82,1.71-1.27,2.81-1.12,1.67,.23,2.83,1.78,2.59,3.45-.16,1.16-.77,1.7-1.77,2.62-7.09,6.43-7.02,9.07-6.66,9.9,.4,.93,3.77,5.44,30.84,3.28,55.85-4.45,68.09-14.61,68.09-18.15-.37-.9-4.13-2.87-7.56-3.84-1.62-.46-2.57-2.14-2.11-3.76,.45-1.62,2.14-2.57,3.76-2.11,2.82,.79,12.01,3.82,12.01,9.71,0,11.84-26.18,20.45-73.7,24.23-5.11,.4-9.65,.61-13.64,.61Z"/><path d="M1084.23,1374.25c-.43,0-.86-.09-1.27-.28-1.53-.7-2.2-2.51-1.5-4.04,.13-.29,13.35-29.44,9.73-52.44-2.03-12.89-3.43-34.22-5.2-61.22-1.57-23.86-3.35-50.9-6-78.44-2.32-24.05-4.77-47.69-6.93-68.56-3.07-29.65-5.29-51.06-5.19-55.16,.04-1.69,1.41-3.01,3.13-2.97,1.68,.04,3.01,1.44,2.97,3.13-.09,3.71,2.22,26.06,5.16,54.38,2.16,20.87,4.62,44.53,6.94,68.6,2.66,27.63,4.44,54.72,6.02,78.63,1.69,25.79,3.16,48.06,5.14,60.67,3.9,24.83-9.64,54.67-10.22,55.93-.51,1.12-1.62,1.77-2.77,1.77Z"/><path d="M1669.78,1339.67c-.07,0-.14,0-.21,0-1.68-.12-2.95-1.58-2.83-3.26,.07-.99,6.81-99.21,.04-137.59-6.56-37.15-22.59-54.29-49.89-72.94-14.1-9.63-39.79-21.51-62.46-32-21.31-9.86-38.15-17.65-43.46-22.44-4.75-4.28-7.68-11.19-7.29-17.19,.23-3.57,.44-7.33,.65-11.18,.55-10.13,1.13-20.6,2.26-29.88,.2-1.67,1.71-2.89,3.4-2.66,1.67,.2,2.86,1.72,2.66,3.4-1.1,9.08-1.67,19.44-2.22,29.47-.21,3.87-.42,7.66-.65,11.24-.27,4.17,1.91,9.22,5.29,12.27,4.63,4.17,22.75,12.55,41.94,21.43,22.88,10.58,48.82,22.58,63.34,32.5,28.67,19.59,45.53,37.65,52.46,76.92,6.9,39.11,.32,135.01,.04,139.07-.11,1.61-1.45,2.84-3.04,2.84Z"/><path class="cls-21" d="M1510.14,1018.9c-1.06,5.25-5.72,9.56-11.03,10.22,1.83-.22-.85-21.73,2.33-23.8,5.6-3.63,9.41,10.01,8.7,13.58Z"/><path d="M966.34,1067.71c-.04,1.35,1.16,2.43,2.41,2.96,1.25,.52,2.64,.71,3.82,1.37,1.5,.84,3.18,2.47,4.61,1.5,2.58-1.76,.06-11.07-2.13-12.67-3.65-2.68-8.58,2.98-8.7,6.85Z"/><path d="M1061.84,1050.45c-.02-.1-.03-.21-.05-.31,.17,1.72,.34,3.43,.51,5.15,.19,1.9,.9,4.33,2.81,4.4,.82,.03,1.57-.44,2.22-.94,1.21-.93,2.35-2.17,2.48-3.69,.16-1.82-1.22-3.5-2.87-4.27-1.66-.77-3.54-.84-5.37-.89l.28,.55Z"/><path d="M1350.32,998.64c.48,1.67,1.47,3.14,2.45,4.57,1.4,2.05,2.79,4.1,4.19,6.15,.32,.47,.85,1,1.36,.75,.27-.13,.4-.42,.5-.7,1.22-3.11,4.04-10.23,1.3-13.3-2.02-2.26-10.87-1.23-9.8,2.52Z"/><g><path class="cls-1" d="M1612.14,1336.62s-17.29-104.9-25.36-154.47c-5.9-36.25-22.15-72.5-30.45-89.36-1.58-3.22,1.77-6.61,5.02-5.09l16.83,7.84c1.73,.81,3.13,2.17,4,3.88,4.71,9.3,20.32,42.51,30,91.96,11.5,58.79,20.72,145.02,20.72,145.02l-20.75,.23Z"/><path d="M1632.89,1339.44c-1.54,0-2.86-1.16-3.03-2.73-.09-.86-9.34-86.77-20.68-144.76-9.62-49.15-25.18-82.21-29.72-91.17-.55-1.09-1.46-1.98-2.57-2.49l-16.83-7.84c-.31-.15-.61-.11-.86,.15-.36,.37-.18,.71-.13,.83,8.94,18.16,24.83,54.03,30.72,90.22,8.07,49.57,25.36,154.46,25.36,154.46l-6.02,1s-17.29-104.91-25.36-154.47c-5.76-35.41-21.38-70.65-30.18-88.51-1.3-2.63-.81-5.69,1.25-7.79,2.06-2.1,5.13-2.67,7.8-1.41l16.83,7.84c2.34,1.09,4.26,2.96,5.43,5.26,4.63,9.14,20.5,42.83,30.27,92.75,11.39,58.25,20.67,144.42,20.76,145.28,.18,1.67-1.03,3.18-2.71,3.36-.11,.01-.22,.02-.33,.02Z"/></g><g><g><path d="M1724.74,1539.42c-.8-4.24-1.38-4.99-5.16-5.4,2.55,7.55,4.43,15.79,2.68,20.89-6.05,17.66-19.53,25.21-32.66,29.12-9.37,2.79-25.09,1.72-39.64-.34-.05,.61-.15,1.21-.16,1.82,12.58,5.96,26.77,8.44,40.63,7.12,5.74-.55,11.7-1.67,16.31-5.13,24.7-18.53,19.97-37.64,18-48.09Z"/><path class="cls-4" d="M1689.6,1584.04c13.13-3.92,26.6-11.46,32.66-29.12,1.75-5.1-.13-13.34-2.68-20.89-2.69-7.95-6.12-15.13-6.85-17.02-8.04-20.7-10.86-32.72-25.71-52.31-14.85-19.6-25.46-49.93-35.69-49.4-10.23,.55-15.24,7.15-9.54,22.68,5.7,15.52,13.23,29.29,12.4,40.14l-1.2,.11c-13.3-11.08-31.14-25.54-44.25-36.92-18.8-16.33-40.15-34.62-52.18-40.89-12.03-6.27-19.86-.71-14.71,8.04,5.14,8.76,15.3,20.52,45.61,48.57,8.64,7.99,16.4,15.92,22.13,22.58,3.76,1.7,12.77,14.35,9.12,16.82-3.38,2.29-12.35,.26-16.13-.38-5.15-.88-20.81-8.24-26.28-10.14-.57-.19-.86-.61-.97-1.07-18-8.73-49.59-26.48-57.37-30.18-7.55-3.59-30.94-17.41-37.59-9.7-3.7,4.29,.82,9.9,8.97,16.27-4.53-3.06-7.87-5.32-7.87-5.32-9.45,3.42-11.34,9.42-2.84,20.35,4.19,5.39,10.03,11.11,16.86,16.95l-3.31,.32c-14.23,1.09-13.31,9,3.12,22.53,16.44,13.53,41.55,30.93,60.95,39.78,19.39,8.85,39.69,17.83,77.27,25.08,4.97,.96,10.62,1.94,16.46,2.77,14.55,2.06,30.27,3.13,39.64,.34Z"/></g><path d="M1674.47,1588.79c-13.05,0-28.79-2.39-41.54-4.86-39.02-7.53-59.71-16.97-77.95-25.3-19.79-9.03-45.21-26.7-61.62-40.2-11.15-9.19-15.56-15.95-13.88-21.28,1.22-3.87,5.42-6.11,12.46-6.65,1.73-.13,3.15,1.13,3.27,2.81,.13,1.68-1.13,3.15-2.81,3.27-4.8,.37-6.84,1.53-7.11,2.4-.13,.4-.86,4.19,11.94,14.73,16.11,13.25,40.99,30.57,60.28,39.36,17.94,8.19,38.27,17.47,76.58,24.87,14.8,2.86,41.57,7.07,54.65,3.17,16.2-4.84,25.94-13.48,30.64-27.19,2.74-7.98-5.65-27.03-8.4-33.29-.51-1.15-.89-2.02-1.08-2.52-1.45-3.72-2.72-7.15-3.93-10.41-5.48-14.77-9.45-25.44-21.37-41.17-5.74-7.57-10.9-16.78-15.45-24.9-6.12-10.93-13.05-23.29-17.53-23.29-3.96,.2-6.58,1.34-7.92,3.38-1.94,2.95-1.61,8.2,.95,15.2,1.48,4.03,3.09,7.96,4.65,11.76,4.61,11.24,8.6,20.95,7.93,29.67-.13,1.68-1.55,2.93-3.28,2.81-1.68-.13-2.93-1.6-2.81-3.28,.56-7.27-3.17-16.36-7.49-26.88-1.58-3.85-3.22-7.83-4.73-11.97-3.31-9.02-3.42-15.97-.32-20.66,2.47-3.74,6.69-5.8,12.56-6.12,.15,0,.29,0,.44,0,8.06,0,14.61,11.68,22.86,26.41,4.67,8.34,9.5,16.97,14.99,24.19,12.47,16.45,16.78,28.05,22.23,42.73,1.2,3.23,2.46,6.63,3.89,10.32,.18,.45,.52,1.24,.98,2.28,5.63,12.8,11.71,28.65,8.59,37.72-5.32,15.52-16.66,25.68-34.67,31.06-4.35,1.3-9.88,1.82-16.01,1.82Z"/><path d="M1580.61,1549.29c-.46,0-.93-.1-1.37-.33-16.29-8.19-46.32-23.87-64.4-36.86-18.67-13.42-31.31-24.52-38.63-33.95-5.11-6.57-6.96-11.94-5.67-16.41,1.11-3.84,4.34-6.67,9.88-8.68,1.58-.57,3.33,.25,3.9,1.83,.57,1.58-.25,3.33-1.83,3.91-3.52,1.27-5.57,2.83-6.09,4.64-.69,2.39,.91,6.19,4.62,10.97,6.96,8.96,19.18,19.67,37.37,32.74,17.74,12.75,47.45,28.26,63.58,36.37,1.5,.76,2.11,2.59,1.36,4.1-.54,1.07-1.61,1.68-2.73,1.68Z"/><path d="M1592.87,1527.5c-.44,0-.88-.1-1.31-.29-29.14-13.86-60.88-34.63-79.85-47.05l-4.35-2.83c-18.67-12.14-30.16-19.98-31.28-27.82-.34-2.38,.34-4.63,1.97-6.52,7.28-8.44,26.06,1.2,37.28,6.96,1.55,.8,2.89,1.49,3.92,1.98,3.31,1.57,10.46,5.44,19.53,10.33,13.99,7.55,31.41,16.96,41.7,21.69,26.07,11.99,32.27,11.62,35.79,10.23-1.47-4.12-11.45-16.91-30.89-34.89-31.34-28.99-41.12-40.66-46.17-49.27-2.77-4.71-2.7-9.34,.19-12.38,3.75-3.95,10.86-3.91,18.56,.1,12.06,6.28,32.69,23.84,52.77,41.29,8.95,7.77,19.95,16.83,30.58,25.6,11.31,9.33,22,18.14,27.73,23.38,1.24,1.14,1.33,3.06,.19,4.31-1.14,1.25-3.06,1.33-4.31,.19-5.62-5.13-16.24-13.89-27.49-23.17-10.66-8.79-21.69-17.88-30.7-25.7-19.82-17.21-40.12-34.51-51.59-40.48-6.17-3.21-10.15-2.54-11.32-1.31-.91,.96-.67,2.86,.64,5.1,4.78,8.14,14.27,19.4,45.06,47.88,8.08,7.47,34.32,32.51,32.98,41.03-.24,1.51-1.16,2.74-2.52,3.37-6.09,2.83-12.68,3.79-42.05-9.72-10.47-4.81-27.98-14.27-42.05-21.86-8.63-4.66-16.08-8.68-19.25-10.19-1.08-.51-2.48-1.23-4.1-2.06-7.04-3.61-25.73-13.21-29.87-8.4-.59,.69-.61,1.21-.55,1.67,.78,5.5,15.54,15.1,28.57,23.57l4.36,2.84c18.84,12.33,50.37,32.96,79.13,46.64,1.52,.72,2.17,2.54,1.45,4.07-.52,1.1-1.62,1.74-2.76,1.74Z"/></g><path d="M1318.19,1486.75c-1.09,0-2.15-.59-2.7-1.62-.79-1.49-.23-3.33,1.26-4.12l233.12-123.82c.58-.31,1.25-.42,1.88-.33,0,0,21.65,3.26,51.28,7.88,14.48,2.27,27.6,.23,42.79-2.12,15.04-2.33,32.08-4.95,54.07-3.93,23.15,1.09,42.87,12.31,56.68,23.12-38.76-44.32-99.43-42.91-130.75-42.21-5.47,.12-10.2,.23-13.81,.08-24.48-1.03-47.05-21.69-53.4-28.01l-230.79,138.17c-1.44,.86-3.32,.39-4.18-1.05-.87-1.44-.39-3.32,1.05-4.18l232.86-139.4c1.24-.73,2.82-.51,3.8,.54,.25,.27,25.15,26.76,50.92,27.85,3.42,.15,8.06,.04,13.42-.08,37.37-.86,115.14-2.63,152.44,69.35,.72,1.4,.27,3.11-1.05,3.96-1.33,.86-3.08,.56-4.05-.67-.31-.39-31.56-39.39-73.42-41.36-21.37-1.01-38.09,1.58-52.85,3.86-15.68,2.43-29.23,4.52-44.66,2.12-25.89-4.03-45.69-7.03-50.25-7.72l-232.23,123.35c-.46,.24-.95,.36-1.43,.36Z"/></g><g><g><path d="M671.18,413.67c.02,.12,.03,.24,.04,.36,.05,.39,.09,.62,.12,.85,.07,.43,.15,.86,.24,1.28,.02,.1,.06,.2,.08,.3,5.67,5.82,13.27,9.73,21.16,11.95,8.91,2.51,18.22,3.1,27.47,3.55-.34-1.52-.78-3.01-1.47-4.41l-47.71-14.34c.02,.15,.03,.31,.05,.46Z"/><path class="cls-5" d="M966.64,396.9s-4.33-2.15-25.64-4.1l12.22-1.57-6.74-15.87c-13.83-1.16-212.89,2.48-233.76,46.84,0,0,8.96,5.32,9.09,5.66l.26,.65c.34,1,.6,2.02,.83,3.05,33.76-7.29,76.85-4.94,113.53-9.53,45.36-3.9,91.06-8.75,136.52-10.85l-6.31-14.28Z"/><path class="cls-19" d="M1059.61,670.53l-80.92-258.88c-.58,0-2.46,.1-5.41,.27l-.33-.75c-81.62,6.91-164.76,13.52-246.77,18.04l2.21-1.11c-18.72,4.37-36-14.46-55.19-13.35-1.66,.1-3.69,.67-4.02,2.3-.02,.07,0,.15-.02,.22-.02-.07-.05-.14-.06-.21-.24-1.02-.38-2.06-.52-3.09-.12-.92-.22-1.85-.29-2.79-6.08-13.49-70.17-98.54-76.2-106.25l97.4,255.49,84.76,108.79s-.29-.69-.81-1.95c2.56,3.98,5.56,7.68,9.46,10.29,7.36,4.92,16.73,5.33,25.58,5.58,4.66,.13,9.65,.14,14.06-1.14,.69,1.82,1.06,2.8,1.06,2.8l236.01-14.26Zm-344.19-235.93l9.53-4.77c.3,.67,.63,1.41,.99,2.24-3.51,.84-7.01,1.68-10.51,2.53Z"/><path class="cls-5" d="M705.97,422.2c-.75-2.25,2.25-24.99-18.73-71.88-20.98-46.89-59.19-75.36-59.19-75.36l2.5,25.47c-5.1-7.42,1.5,4.6-2.5,.75-21.73-20.98-29.97-20.98-29.97-20.98l8.24,24.72,4.99,6.11c-10.59-7.86-19.23-12.86-19.23-12.86l26.52,42.06,49.53,69.26,16.83,6.09,21,6.6Z"/></g><g><path d="M774.25,672.25c-.91,0-1.81-.41-2.41-1.17l-84.76-108.79c-.19-.24-.34-.5-.44-.79l-97.4-255.49c-.53-1.4,.03-2.99,1.34-3.73,1.3-.74,2.96-.43,3.9,.74,3.26,4.07,75.27,99.6,77.03,108,1.75,6.99,76.8,187.89,105.57,257,.59,1.41,.04,3.04-1.28,3.81-.48,.28-1.01,.42-1.54,.42Zm-82.08-113.35l70.56,90.55c-26.08-62.73-95.9-230.95-97.21-237.18-1.72-5.64-41.46-59.82-63.03-88.62l89.68,235.25Z"/><path d="M823.6,687.84c-1.26,0-2.4-.78-2.85-1.98-37.05-98.52-93.72-247.32-98.38-254.6-.7-.84-.91-1.99-.52-3.02,.42-1.12,1.45-1.89,2.64-1.98,10.05-.72,246.34-17.66,254.21-17.66,1.33,0,2.51,.87,2.91,2.14l80.92,258.88c.28,.9,.13,1.87-.4,2.64-.53,.77-1.39,1.26-2.33,1.31l-236.01,14.26c-.06,0-.12,0-.19,0Zm-94.24-255.81c13.7,30.53,75.16,193.38,96.3,249.58l229.87-13.89-79.06-252.93c-20.33,1.08-165.53,11.38-247.12,17.23Z"/><path d="M808.43,687.48c-13.7,0-21.44-1.1-27.69-4.87-4.12-2.49-7.33-9.49-7.93-10.86-.67-1.54,.03-3.34,1.57-4.01,1.55-.67,3.34,.03,4.01,1.57,1.18,2.69,3.66,6.98,5.49,8.08,6.52,3.93,15.96,4.34,36.01,3.81,1.74-.13,3.09,1.28,3.13,2.97,.04,1.68-1.28,3.09-2.97,3.13-4.31,.12-8.16,.19-11.63,.19Z"/><path d="M706.06,425.36c-1.31,0-2.55-.89-2.99-2.19-.26-.78-.28-1.62-.34-3.47-.21-7.21-.85-29.17-18.28-68.13-20.39-45.57-57.85-73.88-58.23-74.16-1.35-1.01-1.63-2.92-.62-4.27,1-1.35,2.91-1.63,4.27-.62,1.59,1.18,39.09,29.49,60.15,76.56,17.92,40.06,18.59,62.93,18.81,70.44,.03,.93,.03,1.58,.09,1.95,.53,1.6-.36,3.21-1.96,3.74-.3,.1-.6,.15-.9,.15Z"/><path d="M686.97,421.01c-1.51,0-2.82-1.12-3.02-2.66-5.58-43.34-37.85-95.5-58.02-114.98-11.14-10.76-18.57-15.78-22.95-18.11l6.23,18.7c.53,1.6-.33,3.33-1.93,3.86-1.61,.54-3.33-.33-3.86-1.93l-8.24-24.72c-.31-.93-.15-1.95,.42-2.75,.57-.8,1.49-1.27,2.47-1.27,1.58,0,10.56,1.05,32.09,21.83,20.8,20.09,54.08,73.87,59.83,118.59,.22,1.67-.96,3.2-2.64,3.41-.13,.02-.26,.03-.39,.03Z"/><path d="M696.6,422.85c-1.46,0-2.75-1.05-3-2.54-.05-.3-5.14-29.85-11.47-46.36-6.07-15.84-11.63-27.58-25.14-47.85-12.6-18.9-47.53-48.51-47.88-48.81-1.29-1.09-1.45-3.01-.36-4.3,1.09-1.29,3.01-1.45,4.3-.36,1.46,1.23,35.94,30.47,49.02,50.09,13.75,20.63,19.66,33.15,25.76,49.05,6.55,17.07,11.58,46.28,11.79,47.51,.28,1.66-.83,3.24-2.49,3.52-.17,.03-.35,.04-.52,.04Z"/><path d="M712.71,425.25c-.66,0-1.31-.21-1.87-.64-1.33-1.03-1.57-2.94-.54-4.27,.79-1.02,20.05-25.19,73.74-35.88,52.86-10.52,161.3-12.13,162.39-12.15,1.35,0,2.37,.72,2.85,1.86l6.74,15.87c.66,1.55-.06,3.34-1.61,4-1.55,.66-3.34-.06-4-1.61l-5.94-13.98c-15.2,.28-110.92,2.38-159.23,12-51.23,10.2-69.93,33.4-70.12,33.64-.6,.77-1.5,1.17-2.41,1.17Z"/><path d="M720.23,431.01c-.76,0-1.53-.28-2.12-.86-1.21-1.17-1.24-3.1-.07-4.31,.91-.94,22.66-23.1,57.08-28.23,34.38-5.12,118.69-10.68,143.18-9.42,40.8,2.08,48.92,5.59,49.71,5.99,.64,.32,1.14,.85,1.43,1.5l6.8,15.4c.68,1.54-.02,3.34-1.56,4.02-1.55,.68-3.34-.02-4.02-1.56l-6.27-14.21c-2.93-.87-13.88-3.39-46.4-5.05-23.71-1.2-108.61,4.39-141.97,9.37-32.31,4.81-53.39,26.22-53.59,26.44-.6,.62-1.39,.93-2.19,.93Z"/><path d="M677.35,415.89c-1.25,0-2.43-.78-2.87-2.03-.14-.39-14.02-39.07-33.77-69.66-14.64-22.68-49.79-43.18-50.15-43.38-1.46-.84-1.96-2.71-1.11-4.17,.85-1.46,2.71-1.96,4.17-1.11,1.5,.86,36.78,21.43,52.22,45.35,20.14,31.2,34.25,70.53,34.39,70.92,.57,1.59-.26,3.33-1.85,3.9-.34,.12-.68,.18-1.02,.18Z"/><path d="M724.06,435.15c-.59,0-1.13-.03-1.6-.05-10.04-.47-20.42-.95-30.45-3.77-8.08-2.27-19.21-7.11-26.36-17.27-.75-1.06-.74-2.49,.02-3.54,.76-1.05,2.1-1.51,3.35-1.14l55.45,16.67c6.62-3,41.47-18.09,79.43-20.81,40.82-2.92,154.54-4.44,155.68-4.46,1.24,.01,2.45,.78,2.9,1.98l3.27,8.76c.59,1.58-.21,3.33-1.79,3.92-1.58,.59-3.33-.21-3.92-1.79l-2.52-6.74c-15.91,.22-115.64,1.72-153.18,4.41-31.31,2.24-61.18,13.48-73,18.41,.53,1.25,.18,2.74-.94,3.61-1.99,1.54-4.42,1.81-6.34,1.81Zm-45.05-16.4c4.91,3.42,10.28,5.48,14.65,6.71,5.55,1.56,11.33,2.36,17.13,2.85l-31.78-9.55Z"/></g><polygon class="cls-5" points="793.88 482.24 832.96 587.96 990.63 574.43 958.71 467.26 793.88 482.24"/><path class="cls-20" d="M832.65,540.58c-1.58,0-2.91-1.21-3.04-2.81-.13-1.68,1.12-3.15,2.8-3.28l125.04-9.93c1.69-.14,3.15,1.12,3.28,2.8,.13,1.68-1.12,3.15-2.8,3.28l-125.04,9.93c-.08,0-.16,0-.24,0Z"/><path class="cls-20" d="M823.84,517.73c-1.58,0-2.91-1.21-3.04-2.81-.13-1.68,1.12-3.15,2.8-3.28l125.04-9.93c1.7-.12,3.15,1.12,3.28,2.8,.13,1.68-1.12,3.15-2.8,3.28l-125.04,9.93c-.08,0-.16,0-.24,0Z"/></g><g><path class="cls-5" d="M590.91,520.2c-1.67-4.52-4.29-20-4.29-20,0,0-2.62,16.91-3.57,20.48-.95,3.1-12.62,5-12.62,5,0,0,11.43,1.67,12.62,5,1.19,3.33,4.29,22.14,4.29,22.14,0,0,3.1-18.33,3.81-22.14,.71-3.57,12.62-5.24,12.62-5.24,0,0-11.67-1.9-12.86-5.24Z"/><path class="cls-5" d="M665.6,684.43c-1.67-4.52-4.29-20-4.29-20,0,0-2.62,16.91-3.57,20.48-.95,3.09-12.62,5-12.62,5,0,0,11.43,1.67,12.62,5,1.19,3.33,4.29,22.15,4.29,22.15,0,0,3.1-18.34,3.81-22.15,.71-3.57,12.62-5.24,12.62-5.24,0,0-11.67-1.91-12.86-5.24Z"/><path class="cls-5" d="M587.75,657.62c-1.41-3.83-3.62-16.92-3.62-16.92,0,0-2.21,14.3-3.02,17.32-.81,2.62-10.67,4.23-10.67,4.23,0,0,9.67,1.41,10.67,4.23,1.01,2.82,3.62,18.73,3.62,18.73,0,0,2.62-15.5,3.22-18.73,.6-3.02,10.67-4.43,10.67-4.43,0,0-9.87-1.61-10.87-4.43Z"/></g><g><path class="cls-5" d="M1124.85,631.34c-2.14-5.79-5.49-25.62-5.49-25.62,0,0-3.35,21.66-4.58,26.23-1.22,3.96-16.16,6.41-16.16,6.41,0,0,14.64,2.13,16.16,6.4,1.53,4.27,5.49,28.37,5.49,28.37,0,0,3.96-23.49,4.88-28.37,.91-4.58,16.16-6.71,16.16-6.71,0,0-14.94-2.44-16.47-6.71Z"/><path class="cls-5" d="M1165.27,545.82c-1.67-4.52-4.29-20-4.29-20,0,0-2.62,16.91-3.57,20.48-.95,3.09-12.62,5-12.62,5,0,0,11.43,1.67,12.62,5,1.19,3.33,4.29,22.15,4.29,22.15,0,0,3.1-18.34,3.81-22.15,.71-3.57,12.62-5.24,12.62-5.24,0,0-11.67-1.9-12.86-5.24Z"/><path class="cls-5" d="M1079.46,455.8c-2.52-6.85-6.49-30.27-6.49-30.27,0,0-3.96,25.58-5.41,30.99-1.44,4.68-19.1,7.57-19.1,7.57,0,0,17.3,2.52,19.1,7.57,1.8,5.05,6.49,33.51,6.49,33.51,0,0,4.68-27.75,5.77-33.51,1.08-5.4,19.1-7.93,19.1-7.93,0,0-17.66-2.88-19.46-7.93Z"/></g><g><path d="M705.08,1090.38c-1.58,0-2.91-1.22-3.04-2.81-1.19-15.43-1.8-31.12-1.8-46.63,0-43.26,4.67-86.5,13.89-128.52,14.06-64.13,38.62-125.68,72.99-182.95,.86-1.45,2.74-1.91,4.18-1.05,1.44,.87,1.91,2.74,1.05,4.18-34.03,56.7-58.34,117.63-72.26,181.12-9.12,41.59-13.74,84.39-13.74,127.22,0,15.36,.6,30.89,1.78,46.16,.13,1.68-1.13,3.15-2.81,3.28-.08,0-.16,0-.24,0Z"/><path d="M665.67,1047.86c-1.68,0-3.05-1.36-3.05-3.05,0-43.26,4.67-86.5,13.89-128.52,9.45-43.1,23.79-85.42,42.61-125.8,.71-1.53,2.53-2.19,4.05-1.48,1.53,.71,2.19,2.53,1.48,4.05-18.63,39.97-32.82,81.86-42.18,124.53-9.12,41.59-13.74,84.39-13.74,127.22,0,1.69-1.37,3.05-3.05,3.05Z"/></g><path d="M1082.89,1614.53c-.43,0-.87-.09-1.29-.29-57.43-26.75-110.6-60.85-158.05-101.35-1.28-1.09-1.43-3.02-.34-4.3,1.09-1.28,3.02-1.43,4.3-.34,47.03,40.14,99.74,73.94,156.67,100.46,1.53,.71,2.19,2.53,1.48,4.05-.52,1.11-1.62,1.76-2.77,1.76Z"/><path d="M1235.53,1735.37c-.31,0-.62-.04-.92-.14-95.18-30.18-186.45-87.35-266.96-137.79-14-8.77-27.74-17.38-41.23-25.68-1.44-.88-1.88-2.76-1-4.2,.88-1.44,2.76-1.88,4.2-1,13.5,8.31,27.27,16.93,41.27,25.71,80.21,50.25,171.12,107.19,265.57,137.14,1.61,.51,2.49,2.22,1.99,3.83-.41,1.3-1.61,2.13-2.91,2.13Z"/><path d="M2043.41,1247.12c-.34,0-.69-.06-1.04-.18-1.58-.57-2.4-2.32-1.83-3.9,23.5-64.95,35.42-132.95,35.42-202.1,0-1.69,1.36-3.05,3.05-3.05s3.05,1.36,3.05,3.05c0,69.87-12.04,138.56-35.78,204.18-.45,1.24-1.62,2.01-2.87,2.01Z"/><g><path d="M1909.43,624.46c-.81,0-1.62-.32-2.22-.96-53.93-57.28-117.71-104.69-189.56-140.9-1.5-.76-2.11-2.59-1.35-4.1,.76-1.51,2.59-2.11,4.1-1.35,72.49,36.53,136.84,84.36,191.26,142.16,1.15,1.23,1.1,3.16-.13,4.31-.59,.55-1.34,.83-2.09,.83Z"/><path d="M1917.46,588.96c-.81,0-1.62-.32-2.22-.96-53.93-57.28-117.71-104.69-189.56-140.9-1.5-.76-2.11-2.59-1.35-4.1,.76-1.51,2.58-2.11,4.1-1.35,72.49,36.53,136.84,84.36,191.26,142.16,1.15,1.23,1.1,3.16-.13,4.31-.59,.55-1.34,.83-2.09,.83Z"/></g><g><g><g><path class="cls-10" d="M1703.77,248.52l-144.44,267.96-21.51-20.21,150.87-278.69c14.82,5.14,22.8,16.6,15.08,30.93Z"/><path class="cls-5" d="M1551,499.83c8.72,2.11,12.42,9.98,7.93,17.34-4.21,6.91-14.48,10.33-22.75,8.29l-237.34-58.56c6.82,1.68,9.26-15.66,8.02-19.76l-5.37-7.62,249.52,60.3Z"/><polygon class="cls-16" points="1301.48 439.53 1534.51 495.85 1685.77 216.57 1451.24 172.4 1301.48 439.53"/><path d="M1534.51,498.9c-.24,0-.48-.03-.72-.08l-233.03-56.32c-.93-.22-1.7-.87-2.08-1.75-.38-.88-.33-1.88,.14-2.71l149.77-267.13c.64-1.14,1.93-1.75,3.23-1.51l234.53,44.17c.96,.18,1.77,.81,2.19,1.69,.42,.88,.39,1.91-.07,2.76l-151.26,279.28c-.54,1-1.58,1.6-2.68,1.6Zm-228.4-61.39l226.84,54.83,148.15-273.54-228.27-42.99-146.72,261.7Z"/><path d="M1542.38,529.56c-1.51,0-3.01-.17-4.47-.53l-64.11-15.82c-1.63-.4-2.64-2.06-2.23-3.69,.4-1.63,2.06-2.64,3.69-2.23l64.11,15.82c6.19,1.52,14.09-2.18,17.28-8.08,1.47-2.73,1.73-5.49,.73-7.77-.91-2.08-2.84-3.59-5.44-4.25l-18.11-4.2c-1.64-.38-2.66-2.02-2.28-3.66,.38-1.64,2.02-2.66,3.66-2.28l18.18,4.21c4.52,1.15,7.9,3.89,9.58,7.73,1.75,3.98,1.4,8.76-.95,13.11-3.81,7.07-11.85,11.64-19.63,11.64Z"/><path d="M1559.32,519.53c-.49,0-.98-.12-1.44-.37-1.48-.8-2.04-2.65-1.24-4.13l144.44-267.97c2.8-5.2,3.37-10.03,1.69-14.34-2.04-5.24-7.4-9.59-15.09-12.25-1.59-.55-2.43-2.29-1.88-3.88,.55-1.59,2.27-2.44,3.88-1.88,9.4,3.26,16.07,8.88,18.77,15.81,2.33,5.98,1.63,12.7-2.01,19.45l-144.44,267.97c-.55,1.02-1.6,1.6-2.69,1.6Z"/><path d="M1515.51,523.41c-.24,0-.49-.03-.73-.09l-216.68-53.46c-1.64-.4-2.63-2.06-2.23-3.69,.34-1.39,1.59-2.32,2.96-2.32,.22-.09,.81-.4,1.78-1.29,2.62-2.4,4.11-5.72,4.2-9.36,.09-3.76-1.37-7.44-4-10.11-.76-.77-1.28-1.23-1.33-1.26-1.27-1.1-1.4-3.02-.3-4.3,1.1-1.27,3.02-1.41,4.3-.31,0,0,.68,.59,1.67,1.59,3.79,3.85,5.89,9.15,5.76,14.55-.11,4.59-1.77,8.86-4.72,12.21l210.05,51.83c1.63,.4,2.64,2.06,2.23,3.69-.34,1.39-1.59,2.32-2.96,2.32Z"/><polygon class="cls-8" points="1444.45 289.64 1572.83 316.5 1603.61 260.13 1475.06 234.62 1444.45 289.64"/></g><g><path d="M1551.66,371.46c-.22,0-.44-.02-.66-.07l-136.94-29.98c-1.64-.36-2.69-1.99-2.33-3.63,.36-1.65,1.98-2.69,3.63-2.33l136.94,29.98c1.64,.36,2.69,1.99,2.33,3.63-.31,1.43-1.57,2.4-2.97,2.4Z"/><path d="M1541.5,397.39c-.22,0-.44-.02-.67-.07l-137.03-30.67c-1.64-.37-2.68-2-2.31-3.64,.37-1.64,1.99-2.67,3.64-2.31l137.03,30.67c1.64,.37,2.68,2,2.31,3.64-.32,1.42-1.58,2.38-2.97,2.38Z"/><path d="M1523.03,421.55c-.23,0-.45-.02-.68-.08l-136.73-31.27c-1.64-.38-2.67-2.01-2.29-3.65,.37-1.64,2.01-2.68,3.65-2.29l136.73,31.27c1.64,.38,2.67,2.01,2.29,3.65-.32,1.41-1.58,2.37-2.97,2.37Z"/></g></g><path d="M1541.96,526.5c3.86-3.62,10.06-4.54,14.39-8.15,2.08-1.73,3.71-4.2,3.82-6.91,.1-2.81-1.42-5.44-3.32-7.52-2.73-2.99-6.34-5.11-10.25-6.16-1.11-.3-11.14-2.85-12.09-1.91,0,0,18.18,4.21,16.5,17.1-1.19,9.11-6.95,10.89-9.05,13.55Z"/></g></g></svg>